<?xml version="1.0" encoding="UTF-8"?>
<svg id="Calque_2" data-name="Calque 2" xmlns="http://www.w3.org/2000/svg" xmlns:xlink="http://www.w3.org/1999/xlink" viewBox="0 0 632.07 1095.55">
  <defs>
    <style>
      .cls-1 {
        filter: url(#drop-shadow-2);
      }

      .cls-2 {
        fill: #212940;
      }

      .cls-3 {
        filter: url(#drop-shadow-1);
      }
    </style>
    <filter id="drop-shadow-1" x="173" y="-3.18" width="459.07" height="1098.73" filterUnits="userSpaceOnUse">
      <feOffset dx="-3.18" dy="-3.18"/>
      <feGaussianBlur result="blur" stdDeviation="0"/>
      <feFlood flood-color="#344166" flood-opacity="1"/>
      <feComposite in2="blur" operator="in"/>
      <feComposite in="SourceGraphic"/>
    </filter>
    <filter id="drop-shadow-2" x="-3.18" y="177.98" width="398.96" height="917.56" filterUnits="userSpaceOnUse">
      <feOffset dx="-3.18" dy="-3.18"/>
      <feGaussianBlur result="blur-2" stdDeviation="0"/>
      <feFlood flood-color="#344166" flood-opacity="1"/>
      <feComposite in2="blur-2" operator="in"/>
      <feComposite in="SourceGraphic"/>
    </filter>
  </defs>
  <g id="Calque_1-2" data-name="Calque 1">
    <g>
      <g class="cls-3">
        <path class="cls-2" d="M288.48,466.46l.07-.02h-.07q-.4,0,0,.02Z"/>
        <path class="cls-2" d="M179.13,753.75c.17.11.34.19.5.29-.12-.18-.28-.29-.5-.29Z"/>
        <path class="cls-2" d="M179.8,754.27c.21.09.48.11.7.2-.29-.16-.59-.3-.87-.43.05.03.11.11.17.23Z"/>
        <path class="cls-2" d="M632.07,728.54c-12.99,7.53-22.51,18.77-33.81,28.37-28.17,23.99-61.43,45.45-97.27,55.64-16.58,4.72-46.03,11.2-67.96,6.91l-.6-15.29c9.45,3.4,19.32,4.8,26.74,3.33-8.78-8.76-17.65-17.63-25.56-26.89,22.24,10.46,42.92,20.02,68.37,15.09-9.4-8.42-21.22-14.72-30.49-24.01,23.44,4.52,39.63,18.04,65.27,13.44-10.27-10.21-23.55-19.25-33.61-29.61,16.31,10.13,58.84,19.97,66.37-5.82-19.61-.62-36.24-2.73-54.61-8.9,16.72.16,61.1-3.78,63.52-24.69-7.66,2.65-17.11,1.88-24.88-.17,23.09-4.22,45.61-19.66,45.91-45.28-10.4,9.52-21.64,18.4-33.48,26.03-27.45,17.73-93.01,47.82-136.16,37.86l-.02-.58c4.35-.22,9.77-1.65,17.11-5.44-5.88-2.9-12.48-7.55-17.79-12.49l-.18-4.68c13.93,8.05,28.95,11.65,45.58,11.12-5.8-7.22-14.04-11.92-20.27-18.99,12.53,8.29,35.93,11.24,49.71,4.68-8.09-6.02-17.23-11.8-25.91-17.34,19.27,5.23,47.53,11.44,64.84-2.14-9.97-4.99-21.92-7.51-30.87-13.6,16.16-.17,36.61,2.64,45.14-14.26-7.12-1.47-15.39-.63-22.65-2.58,12.57-2.24,32.63-7.27,30.58-24.56-5.39,2.55-11.16,3.54-17.29,2.94,11.12-7.83,28.8-20.68,27.01-36.1-7.91,4.8-14.8,10.54-22.14,16.05-31.19,23.46-82.71,48.26-125.76,41.14l-1.89-51.03c13.06,8.1,30.9,10.85,45.29,8.32-4.54-9.53-17.47-15.82-19.76-25.46,14.09,9.76,36.98,17.91,53.37,10.95-7.8-6.02-19.29-11-25-18.84,23.42,1.27,46.93,10.73,70.92,6.05-8.69-5.88-26.87-10.4-30.84-19.95,12.76,1.45,33.73,9.56,45.45,3.4-6.5-2.81-14.26-3.21-20.86-6.13,10.24-4.3,25.48,1.2,37.56-2.48-12.25-4.54-30.83-4.38-44.26-8.12,19.77-1.45,66.66-.51,73.19-26.17-12.09,2.75-34.51,5.98-46.05.6,8.16-2.52,28.38.35,31.56-8.95-7.9-.14-15.86-.89-23.65-1.77,22.85-7.29,34.11-22.06,37.01-45.5-9.61,7.23-17.75,15.91-27.75,22.75-24.54,16.81-47.96,34.97-76.23,44.94-17.83,6.26-35.44,12.62-54.04,16.39-7.79,1.61-17.76,4.25-27.57,5.45l-.96-24.49c9.83,4.64,21.29,7.7,30.8,5.41-2.98-8.85-11.72-15.59-17.54-22.81,12.62,9.48,38.87,12.51,53.6,7.73-7.67-4.76-19.04-6.9-22.57-15.87,11.55,1.85,32.07,8.85,42.85,2.68-7.15-5-18.2-7.26-23.38-14.4,13.14.95,31.09,3.05,43.39-2.27-6.61-6.95-17.78-6.54-24.91-12.83,10.69-3.15,25.58-.06,34.38-9.45-5.94-2.86-14.15-3.37-20.07-6.57,13.44-3.63,30.03-1.9,39.42-14.48-5.53-1.03-12.02-.13-17.17-2.15,10.44-3.11,23.3-5.68,27.7-16.78-4.04,2.35-9.1,3.16-13.66,2.17,5.07-3.37,12.24-4.52,18.91-24.07-4.66,4.88-9.56,9.48-14.13,13.74-22.3,20.68-46.87,37.59-74.22,50.8-21.62,10.45-42.51,12.74-65.02,15.64l-.54-14.73c13.69,1.35,30.1-8.2,39.63-14.01-8.85-.06-17.93-4.91-26.47-6.82,12.31.61,28.03,1.35,39.84-2.88-5.31-6.07-13.58-8.41-20.49-11.41,13.05-3.64,31.3,2.75,42.86-5.69-6.33-2.83-15.72-3.8-22.27-7.15,12.51-2.99,24.19,3.48,36.17-5.68-6.63-3.02-14.37-5.04-21.04-9.48,17.73,3.12,31.74-3.27,46.98-10.59-7.4-.85-14.82-1.24-22.08-3.39,9.63-6.99,26.05-3.76,28.81-18.73-8.42,2.73-15.46,5.48-24.76,3.81,9.99-3.69,22.47-13.89,22.55-25.53-6.11,4.99-13.71,9.85-19.9,15.34,6.77-8.1,12.85-19.65,13.78-30.32-6.25,2.56-8.89,9.89-13.15,14.82-11.54,13.34-26.64,26.7-40.6,37.44-12.83,9.85-42.64,31.1-61.79,29.51l-1.4-37.16c1.61-.1,3.29-.51,5.04-1.44-.34-.55-1.57-2.35-1.55-2.26,13.3,9.06,35.83,8.9,49.29.11-7.27.38-13.49-2.78-19.61-6.22,13.25.11,25.13,2.72,36.86-5.43-6.66.27-13.42-.76-19.68-2.75,10.64-1.8,20.66-1.08,28.53-9.46-5.49-1.4-11.56.1-17.39.02,7.2-3.58,12.75-8.66,13.59-16.68-4.47,3.24-8.84,6.57-13.47,9.55-15.51,10.07-42.99,23.45-62.36,15.18l-1.61-43.69c10.63,8.96,25.32,13.46,36.69,8.42-5.79-.83-12.24-3.17-14.9-7.6,14.29,3.4,36.16,7.28,49.39-.54-8.08-1.88-15.84-6.26-23.22-10.2,12.19-.87,31.67,2.35,43.26-4.87-5.61.09-11.59.13-16.77-1.52,8.85-6.25,31.48-3.33,31.74-19.21-7.09,4.89-15.82,8.34-24.38,6.17,8.87-2.36,21.78-8.55,25.52-19.31-14.93,4.44-28.53,10.62-44.11,13.59-16.03,3.02-47.91,6.96-64.66-2.92l-.55-13.93c6.8,5.55,17.06,8.74,26.17,9.34-3.8-2.88-8.55-6.49-11.01-11.12,11.71,7.6,25.57,13.28,39.21,7.59-5.63-2.06-12.16-3.23-16.21-7.57,10.13-.1,31.55,6.63,36.85-5.01-5.84-.68-12.36-.03-17.21-3.4,9.12-2.52,21.72.39,26.63-9.77-8.07,1.32-14.72,3.76-22.89,1.8,18.81-6.91,41.75-19.7,41.2-43.07-4.13,4.49-8.97,8.15-14.01,11.55-4.31,2.92-9.4,5.97-14.9,8.92,1.45-3.14,2.39-6.41,2.08-9.83-2.14,4.88-9.62,11.83-17.53,17.13-5.44,2.25-11.11,4.31-16.8,5.93,2.72-3.18,5.94-7.03,7.8-11.13-8.3,2.39-15.34,9.6-23.19,14.38-9.55,1.32-18.84,1.03-27.12-1.55l-1.27-33.8s.06.07.12.11c5.98,4.31,20.69,11.09,28.03,8-3.97-4.3-11-7.07-13.69-12,5.03,1.35,10,4.72,15.21,5.6,4.75.78,9.8-1.18,14.37-.5-5.65-3.8-12.83-5.69-17.83-10.4,11.08,1.98,21.17,5.48,32-.85-5.15-1.77-12.08-3.01-17.9-3.54,4.1-2.19,8.43-5.23,12.18-8.04-1-.18-3.12-1.72-4.57-1.89,3.68-3.84,7.99-6.91,12.26-9.83-1.72-3.37-8.54,0-12.74-1.28,12.69-7.29,27.25-19.28,26.1-35.49-3.19,4.01-6.67,8-10.3,11.66-15.64,15.8-40.19,41.4-64.11,35.58l-.7-18.47c4.9,1.84,12.3,3.07,16.54,3.09,12.13.14,4.26-3.08-.91-7.81,6.44,2.7,16.35,2.76,22.52-.05-3.19-3.24-8.2-3.69-12.5-4.42,10.91-3.01,19.04-3.44,24.34-14.54-.1.11-.2.25-.31.35-3.01,2.25-6.59,3.27-10.23,3.73,6.63-4.73,23.26-13.4,17.17-23.56-8.18,7.14-12.86,15.29-23.45,19.53-6.58,2.65-25.37,7.61-33.95,2.23l-.7-19.08c3.55,1,8.27.17,12.22-1.56-1.93-.54-3.92-1.35-5.86-1.73,6.9,1.53,13.46-1.5,19.51-4.32-5.11-.78-9.81-3.07-14.77-4.19,5.65-2.71,12.36-5.45,17.1-9.97-1.94.49-5.14.93-6.35,1.24,4.39-1.5,10.97-3.02,10.43-8.78.12,0-.75-.64-.7-.52-2.39,1.25-4.84,2.55-7.19,3.6,6.41-3.93,5.21-9.9,7.2-15.87-4.94,9.68-11.05,17.27-22.26,19.64-2.77.63-6.46.7-9.76,0-.13-.6-.3-1.18-.5-1.69l-.4-11.05c2.54,1.98,7.53,3.14,10.09,1.96-2.09-1.29-4.05-3.36-5.45-5.37,4.37,1.3,9.1,5.34,14.05,3.9-.38-1.74-4.33-3.4-6-4.38,4.54-.17,9.42.81,12.78-2.93-2.28-1.42-5.35-1.17-7.37-3.32,2.79-.81,6.32-.35,8.26-3.05-4.73.61-9.66,1.77-14.52,1.56-3.13-.17-8.74-1.35-12.44-3.74l-.39-11.14c3.54,2.3,8.4,3.54,11.25,1.81-1.59-2.64-5.61-3.41-7.65-5.91,4.31,1.24,12.98,3,16.64-.47,3.42-3.28-2.2-2.25-5.51-2.49.1-.23.13-.51.19-.79,3.21-.79,7.3-1.37,7.48-5.35-7.15,2.28-15.91,2.14-22.89-1.41,0-2.96-.17-6.09-.42-9.21l-.09-2.21c2.05-3.39,4.47-1.61,7.07-4.64,3.58-4.16-3.63-5.23-5.37-7.49-.52-.68-.89-1.38-1.21-2.17,1.37.41,2.75.66,4.21.72-.88-.64-1.69-1.38-2.37-2.15,1.19,1.25,6.22,1.56,6.69-.78.34-1.81-4.69-1.25-6.17-2.17,1.99.07,3.97-1.05,4.72-2.85-2.55.31-6-.32-8.27-2.08.58-8.18,1.36-16.85-1.05-23.7-3.54,1.39-2.45,9.45-2.76,13.55-.1,1.3-.16,2.62-.22,3.95-3.82-3.75-4.33.22-4.03,4.59.59,7.73,4.9,6.75-4.14,11.71,12.2,2.58-4.92,6.05,1.77,11.11,1.48,1.1,3.31.93,4.99,1-.22,3.64-.45,7.3-.77,10.92-.18,1.74-1.29,6.33-1.59,10.23-9.73-.84-16.11-12.85-19.8-20.45-5.36,3.19-.07,10.53,2.45,14.35-1.73-.55-3.44-.18-5.21-1.07-1.21,7.64,10.21,10.81,16.12,11.22-1.87.47-3.76,2.04-5.27,2.8,5.27,6.16,11.62,4.63,14.67-.05.32,4.59,1.13,8.76-4.15,10.87-7.64,3.06-18.49,2.08-28.72-.31,3.04,5.57,6.41,7.34,12.05,7.84-1.68,2.36-7.85,2.93-10.13,1.81,11.99,12.11,26.96,1.97,34.29-5.16l-.15,28.13c-6.13,15.18-35.78-8.4-44.31-13.3,3.65,8.67,5.77,13.42,15.13,16.84-3.41.64-6.77,1.25-10.3,1.25,2.68,4,9.38,3.73,13.86,4.76-2.12,2.08-5.02,3.2-7.83,3.72,3.15,2.02,7.76,1.04,11.13-.43-1.69,3.03-5.29,5.08-7.86,7.93,8.13.34,12.69-1.64,19.11-6.09-1.2,3.41-4.73,7.37-6.31,10.9,5.11-.96,8.88-4.9,13.56-6.29-.15,1.05-.1,2.38-.26,3.46,1.42-.28,2.75-1.31,4-2.82l-.09,15.02c-14.08,12-39.21-5.79-50.15-15.29.34,8.12,8.26,12.3,14.77,15.61-3.72-.21-14.73-2.86-8.78,3.09,2.94,2.96,12.69,3.77,16.72,4.96-3.39,1.35-7.06,1.9-10.57,3.21,5.32,3.05,14.05,5.49,19.8,2.86-2.84,2.99-7.01,3.26-10.34,5.15,5.52,4.83,19.04,2.82,24.92-.95,1.69-1.05,2.82-2.19,3.54-3.43l-.07,13.64c-7.24,8.45-16.78,9.23-29.16,10.01,3.6,3.17,9.57,4.57,14.24,3.73-5.45,5.84-13.77,3.86-20.53,6.18,1.5.07,3.15.67,4.64.89-3.64,2.9-11.93,3.38-16.56,2.64,5.3,9.71,21.59,2.08,29.48,1.84-4.93,3.52-10.72,7.12-16.83,7.92,12.22,5.12,27.6-5.16,34.65-16.96l-.09,18.23c-7.48,9.84-35.85,9.16-45.54,9.77h-.63c-5.19-1.6-9.87-4.3-13.21-8.84-.51,3.94,1.27,7.38,4.83,9.06h-.14c-8.08-1.1-19.63-9.76-23.86-16.65-.07.07-.89.47-1.05.38,1.37,6.22,6.11,12.07,11.71,15.84-10.78-.78-21.58-2.5-31.67-5.14-4.83-1.26-9.28-2.91-13.38-5.88-4.64,12.69,31.73,18.43,39.17,21.24-5.4,1.45-12.25,1.53-16.83,4.82,9.44,6.38,24.46,3.13,34.61.47-3.2,5.24-11.54,7.55-16.29,11.71,9.84,1.27,21.09-3.6,30.38-6.87-4.54,4.92-11.53,7.4-17.1,11.11,11.08,3.45,22.2.6,32.66-4.39-4.07,3.92-9.43,6.19-13.77,9.72,14.32,5.23,35.87-14.58,40.01-27.15l-.26,48.69c-30.3,19.06-86.95-4.5-115.47-15.62-8.85-3.42-16.61-7.88-26.34-8.47,3.33,16.11,22.1,24.79,35.46,31.23-7.07.21-39.11-5.89-38.34,1.48,1.28,11.99,38.39,12.57,46.49,10.54-7.2,4.94-15.88,7.42-22.95,11.64,17.14,5.7,30.17-3.03,46.73-5.52-5.56,6.52-13.19,8.55-20.43,11.76,18.44,5.63,31.43-1.44,48.15-6-4.38,9.32-12.9,17.86-23.57,18.53,14.77,3.56,34.5,3.33,49.33-4.22-3.26,2.92-6.54,5.79-9.93,8.04,9.74.34,22.74-3.8,30.63-11.53l-.09,22.77c-14.16,12.28-44.24,10.35-58.85,5.15,3.27,8.67,12.29,12.56,21.24,11.97-2.65,4.11-9.35,3.98-14.17,4.38,10.53,9.14,17.98,1.24,27.59-4.44.31,5.19-3.16,9.32-7.23,12.32,7.89-.38,13.84-2.82,19.69-8.16-2.31,3.28-5.56,6.81-7.81,9.65,8.66.95,14.97-3.2,19.42-9.39l-.14,27.78c-.22.05-.44.12-.7.14-6.01,5.67-16.15,6.75-27.05,5.57-4.54-4.23-8.59-8.74-13.66-13.7-.13,4.26,1.68,8.27,3.55,12.11-.7-.17-1.42-.3-2.14-.47-5.77-6.32-9.77-13.56-14.29-20.94-3.12,6.8-1.13,12.46,2.41,17.74-2.68-.85-5.21-1.7-7.55-2.56-6.46-7.28-11.51-16.21-13.92-24.79-2.52,6.29-2.52,12.56-.84,18.56-3.49-1.67-6.96-3.44-10.36-5.32-3.15-9.07-5.08-19.11-11.37-25.45-2.15,4.98-.23,12.98,2.64,20.33-3.82-2.32-7.55-4.74-11.28-7.24-4.58-9.46-7.97-20.03-11.91-27.44-5.11,5.28-2.79,13.88,1.7,20.31-5.4-3.89-10.69-7.85-15.73-11.75-6.29-4.86-12.19-11.68-19.51-14.81-1.98,19.34,27.02,34.45,41.75,40.54-9.85,4.04-25.63,1.86-35.46-1.03,4.11,18.52,32.13,14.13,46.23,16.35-6.23,2.25-13.97,3.51-20.56,6.26,11.04,5.17,29.64,9.55,41.86,6.25-5.22,4.34-15.59,4.45-21.32,9.32,14.38,6.94,37.09,8.16,51.54,4.35-6.1,4.02-13.46,5.08-20.07,8.33,17.06,10.98,50.34,1.2,65.94-13.31l-.17,33.25c-49.87,12.65-101.3-9.03-146.64-28.37-6.19-2.63-12.8-3.32-19.12-5.71,9.3,18.87,16.91,21.06,33.43,24.9-7.27-.35-10,1.61-16.78,4.1,9.99,4.59,20.04,5.14,30,1.3-4.18,10.83-13.3,11.56-22.73,17.07,10.66,7.18,37.15-.83,45.56-9.1-3.55,6.34-8.22,11.89-15.08,14.52,16.21.34,30.99,4.39,46.59-2.15-6.32,6.71-13.54,9.47-22.6,12.13,8.14,9.08,32.65,5.73,43.14,2.22-6.04,3.06-13.58,5.91-18.78,10.05,15.94,9.69,45.01.05,58.17-11.36,1.18-1.03,2.91-2.9,4.74-5.15l-.12,24.39c-20.8,5.19-39.82,5.06-61.98,1.88-34.13-4.89-64.51-19.5-94.08-36.83-13.08-7.65-25.5-19.01-40.35-23.08,3.9,8.59,9.36,18.64,16.31,25.12,5.37,5.02,19.45,9.82,5.37,13.15-5.77,1.39-12.23,1.15-18.14,1.28,3.74,4.01,7.1,7.44,12.26,9.73,5.71,2.51,13.62,2.41,18.45,6.09-5.14,3.8-12.64,4.52-18.29,7.78,6.59,2.05,13.26,3.73,20.15,4.54,5.67.63,11.38.74,17.06.47,3.39-.18,10.55-2.43,13.68-1.24,5.88,2.27-.32,5.18-4.67,8.81-4.94,4.1-10.15,8.14-15.95,11,13.55,1.13,26.75,3.54,40.52,4.01-2.89,4.72-10.17,5.44-13.67,9.47,11.62,5.6,30.82.78,41.72-4.86-2.39,4.71-14.69,16.65-7.59,19.78,7.79,3.44,28.02-11.35,34.24-15.7.1-.1.18-.21.28-.31-1.66,5.5-13.07,18.78-6.25,20.59,5.47,1.45,18.61-7.58,23.06-10.1,4.27-2.48,8.55-5.15,11.81-8.83-3.11,5.98-5.51,15.67-7.21,20.25,11.95-3.54,24.23-10.53,33.05-19.94l-.14,20.51c-.2-.07-.41-.13-.62-.23l.62.49-.07,19.16c-13.81,6.36-34.59,3.49-48.48,2.82-18.93-.95-37.31-4.58-55.88-8.12-29.44-5.6-55.35-20.05-82.11-32.96-10.92-5.26-20.28-12.58-30.88-18.31,6.43,22.74,19.75,35.66,43.46,39.42-7.58,2.03-15.34,3.98-23.13,5.31,4.55,8.74,24.12,2.85,32.58,4.11-10.63,7.06-33.28,7.23-45.64,6.29,10.3,24.44,56.53,16.44,76.31,14.93-12.73,5.67-31.12,8.32-42.53,14.67,12.49,1.81,26.74-5.96,37.5-3.2-6.09,3.88-13.72,5.43-19.69,9.16,12.51,4.35,32-6.82,44.39-10.18-2.47,10.01-19.76,17.24-27.49,24.36,24.43,1.03,46.26-11.89,69.23-16.68-4.51,8.67-15.13,15.27-21.93,22.41,17.26,4.41,38.65-7.11,51.14-18.87-.81,9.92-12.66,18.06-15.72,28.17,18.03.42,40.28-7.83,50.87-22.76-.61,8.29-8.1,13.52-5.91,23.08,4.14-1.04,8.94-4.07,13.63-8.2l-.11,28.39c-18.71,5.14-42.82,1.75-60.37.85-24.27-1.28-49.34-8.26-70.11-21.21-9.96-6.19-18.27-15.8-30.58-17.13,2.03,15.32,24.88,21.72,36.38,27.57-8.99,1.8-18.64,2.19-27.66,1.07,7.71,9.44,23.89,9.66,35.46,12-8.27,1.6-16.9,4.93-25.17,6.33,13.01,7.57,39.95,7.51,54.51,4.54-9.48,5.89-18.89,9.55-29.85,12.16,19.21,9.64,43.43,2.45,64.3,3.03-10.77,3.2-29.43,8.64-36.48,16.72,31.47,2.05,72.58,7.8,89.4-14.08l-.09,16.4c-.27.11-.55.23-.81.35-.01-.05-.03-.08-.07-.11l.03.14c-33.89,13-77.44,10.7-110.57,1.19-21.38-6.1-36.6-20.71-56.35-28.74-9.82-4.01-18.32-6.74-12.25,6.62,5.01,11.03,26.96,16.48,37.31,20.27-9.64,1.95-19.17,4.6-29.13,2.55,13.74,4.22,31.63,8.78,44.2,14.12-8.38,3.94-17.49,6.33-26.06,9.12,16.19,9.22,33.2,4.32,50.51,3.75-7.88,4.05-17.5,6.92-24.44,11.98,21.43,8.4,52.7-7.25,74.56-10.38-6.61,8.09-15.34,16.15-26.21,20.86,21.04,4.13,44.4-4.51,59.77-18.2.18,6.94-1.97,11.28-9.19,17.75,10.92,0,21.73-4.59,28.5-11.4l-.05,8.98c-13.59,5.84-31.28,5.77-44.41,7.35-25.52,3.05-50.89,5.41-75.97-1.77-19.79-5.68-37.64-17.18-54.42-28.82-8.36-5.78-35.05-15.01-47.37-26.62,1.09,17.9,22.97,39.3,34.23,40.64-9.47,1.98-20.37,6.79-29.91,3.2,11.82,6.22,25.82,11.74,39.45,8.85-8.07,3.98-16.37,8.37-25.12,9.39,10.41,7.77,26.75,6.86,39.44,5.72-6.2,6.01-14.8,8.17-22.75,11.19,15.67,12.04,40.45,4.35,57.25,2.14-9.87,9.79-23.13,15.33-35.18,20.73,16.63,5.64,40.95,8.79,57.85,2.31-7.64,3.12-14.02,7.99-21.1,12.2,18.47,6.4,39.01-4.26,57.08-7.23-5.03,3.82-11.27,8.13-15.71,12.59,15.86,9.61,53.11-8.36,66.53-18.19-4.14,7.47-13.02,14.23-19.67,19.61,20.14,3.57,32.25.13,39.46-7.6l-.07,15.35c-18.31,9.89-45.56,8.57-64.48,9.08-30.31.74-61.38-1.86-90.46-10.74-10.24-3.13-20.3-7.19-30.68-9.79,3.97,15.33,22.27,29.07,37.81,30.89-11.32.6-22.51-.98-33.84-.64,7.02,17.06,41.68,13.06,56.88,14.97-9.46-.49-21.37.83-28.3,7.14,23.82,8.43,51.94-1.45,75.35-7.02-10.67,5.03-24.83,11.12-34,18.81,12.68,1.15,29.41-.72,41.6-6.89-5.77,3.86-11.41,8.29-16.97,11.67,14.72,1.05,39.68-8.09,52.22-15.77-5.56,8.28-14.27,14.21-20.39,21.35,22.68,2.97,26.76-14.04,39.5-26.82.54,7.98-12.46,19.26-10.93,24.22,3.01,9.88,20.75,1.3,25.5-2.78.28-.3.56-.61.88-.88l-.05,9.97c-20.7,12.6-51.77,18.51-69.97,21.07-33.18,4.69-68.65-.3-99.94-11.95-12.47-4.66-25.53-14.5-39.21-14.21,2.54,20.18,33.63,26.47,49.85,27.05.22-.2.22,2.38,0,2.15-10.59,1.48-20.79,2.15-30.81,6.69,16.58,8.42,39.36,3.37,57.69,3.13-8.93,5.67-25.48,9.24-29.01,19.59,21.13-1.4,40.16-8.34,59.96-14.24-8.51,7.22-17.58,14.17-26.42,21.56,12.69-1.7,26.62-8.95,35.27-18.23,4.34,9.96-.7,20.89.34,31.63,6.96-8.48,8.38-22.71,17.42-32.22-1.03,10.09,4.66,19.3,2.46,29.03,11.4-10.71,23.02-21.59,26.14-36.99,2.18,8.32,2.5,20.27,7.95,26.83,6.93-10.17,15.82-20.26,22.89-30.25-1.33,9.61-.56,20.26-1.33,30.04,3.77-.3,10.03-6.69,16.47-15.55l-.66,135.45,46.7,6.65-5.25-139.6c5.52,8.46,10.94,17.35,16.58,25.18,2.67-5.57-.13-11.97-1.65-18.11,9.63,10.49,20.39,15.86,31.72,23.51-.56-8.34-2.97-17.67-9.35-23.45,11.79,3.05,29.98,9.24,41.19,3.49-4.07-4.38-9.49-7.81-15.11-10.22,12.95.06,36.37,5.77,40.48-12.48-.28-.29-.54-.54-.81-.82-29.54-1.08-74.93-4.81-104.5-25.4l-.2-4.64c6.22,4.35,13.29,8.06,20.31,10.41-2.75-7.24-6.48-10.77-8.62-19.29,10.04,7.41,19.85,24.51,31.87,24.3-3.44-5.97-8.77-10.38-13.15-15.84,15.33,9.85,28.9,13.31,47.3,13.46-3.53-4.08-9.05-9.16-12.52-14.01,12.52,2.64,41.17,9.36,46.69-6.35-5.97-1.66-11.87-2.28-16.67-5.72,6.79-5.14,17.62-5.98,21.43-13.39-24.16,5.45-54.78,6.53-78.84.95-8.74-2.02-20.76-5.04-32-9.65-1.66-5.19-4.93-11.07-5.72-14.4,11.91,12.08,33.85,24.06,51.42,19.62-7.03-6.71-17.19-12.02-19.65-21.95,15.45,9.04,32.65,16.17,51.48,12.42-9.14-4.13-19.01-9.68-27.07-16.21,21.57,3.43,48.38,16.17,69.37,2.06-8.01-4.11-16.07-10.81-23.05-16.52,17.37-.46,33.99,3.55,49.3-6.53-8.48-3.92-19.22-8.56-23.04-17.37,18.61-1.85,33.44,1.25,47.49-13.46-7.3-2.08-14.89-2.86-21.86-5.76,15.34-5.92,24.06-11.54,32.2-26.06-5.86-.07-11.56.82-17.33,1.25,13.15-13.9,22.65-27.1,26.22-46.43Z"/>
      </g>
      <g class="cls-1">
        <path class="cls-2" d="M355.25,936.42c-27.23-1.19-57.1-4.73-81.25-18.37-10.53-5.94-24.03-16.89-35.05-29.2-.26-11.01-.56-22.29-.84-33.83,1.39,1.37,2.88,2.54,4.46,3.41-.35-5.11-2.5-10.3-4.78-15.41-.06-2.01-.1-4.02-.15-6.04,10.14,13.89,12.34,31.89,30.58,39-3.83-10.36-9.82-19.06-12.18-30.05,10.24,14.69,11.17,37.17,24.93,48.51,12.77-8.9-9.7-34.17-13.2-44.38,10.52,6.35,18.12,18.01,24.29,28.55,4.46,7.6,13.01,22.91,23.74,17.59-5.12-8-14.32-12.22-17.55-21.76,5.49,3.15,11.13,6.09,16.71,9.05,18.77,9.93,57.92,26.34,74.08,5.09-.22-.22-.43-.43-.65-.65-13.81-1.7-27.45-2.39-40.81-6.65-26.97-8.62-52.87-22.37-75.49-39.33-15.21-11.4-27.52-26.34-35.51-43.5-.14-5.1-.29-10.24-.44-15.4.2.26.37.55.58.8.83-4.63-.02-10.25-.99-15.62-.07-2.35-.13-4.69-.21-7.04,8.37,12.87,17.69,38.04,31.46,42.92,1.59-11.7-7.27-21.63-4.8-33.26,6.49,13.36,29.89,46.87,46.3,45.47-5.68-12.48-17.53-21.15-21.78-35.09,11.49,16.25,42.9,28.66,62.1,22.4-9.45-5.08-23.42-8.02-33.48-15.63,17.71,3.41,51.9,6.63,66.24-3.3-13.31-2.15-26.01-4.51-38.95-8.54-34.96-10.9-86.38-26.69-108.44-61.01-.37-12.63-.76-25.33-1.15-38.07,1.04,3.91,2.41,7.62,4.74,10.61,6.81-4.61,4.87-11.99,5.03-19.54,6.52,11.92,11.47,30.08,23.55,37.7,2.25-7.32-2.08-13.59-4.66-19.98,17.98,9.27,27.31,33.13,51.07,30.34-3.9-5.57-11.32-11.2-12.64-18.11,8.85,4.74,44.43,23.54,51.68,9.76-8.81-1.47-16.38-7.47-22.44-13.99,12.15.28,36.93,11.76,43.81-4.34-6.95,1.7-15.55,2.01-21.19-2.34,9.19-2.5,20.55-5.92,26.22-14.8.2.06-.8-1.22-.81-1.11-9.31.85-17.32,4.42-26.19,6.91-36.67,10.38-98.49-11-119.66-49.19-.37-11.93-.75-23.83-1.13-35.68,1.96,2.19,4.17,3.63,6.65,3.91-.11-6-2.56-11.61-4.68-16.93,4.84,8.54,17.38,18.73,26.66,21.78-1.9-4.22-5.32-8.16-6.54-12.63,9.03,4.6,15.62,10.71,26.02,12.61.22-.22.43-.42.65-.64-3.65-5.07-8.23-10.11-10.22-16.27,11.37,6.26,24.02,17.42,38.14,12.15-6.04-1.94-11.52-5.82-14.79-11.48,17.56,3.9,28.04,20.57,48.38,8.41-5.95-.46-12.02-2.42-16.82-5.99,9,2.19,28.58,4.02,33.43-5.51-8.59,1.76-17.15-.42-24.15-5.46,19.91-3.27,31.69-6.39,46.21-16.12-.4-.67-.86-1.3-1.36-1.92-7.64,2.45-15.81,3.67-23.52,5.05-45.21,8.03-87.8,9.83-125.5-15.37-.19-5.8-.38-11.59-.57-17.33,1.35-3.6.95-7.9.32-11.72,5.5,6.97,5.58,22.38,14.43,25.47,2.88-5.66-1.89-10.43-1-16.19,7.97,9.92,18.37,14.68,31.4,13.88-4.2-3.58-10.02-5.73-13.14-9.72,10.72,6.07,17.71,6.56,30.22,6.66-5.02-3.76-10.61-7.06-15.6-10.27,15.93,4.07,24.62,3.88,40.04-2.61-7.41-1.11-14.74-4.37-21.57-6.71,9.44.5,22.34.62,25.95-9.63-6.97.84-15.04,2.48-21.24-1.21,5.39-1.58,11.97-4.29,12.66-10.36-.21-.22-.42-.43-.61-.65-6.27,2.31-11.7,5.76-18.21,7.36-17.24,4.23-47.23,2.07-64.83-10.48-.2-6.15-.41-12.22-.6-18.26,3.04,3.69,7.12,6.63,12.88,8.38-1.05-5.99-5.7-11.61-7.75-17.53,9.11,6.52,17.86,22.89,30.34,22.4-1.09-5.09-4.77-9.64-7.78-13.82,8.88,3.75,24.06,15.63,34.06,9.69-4.8-3.83-12.35-4.75-17.82-9.06-.17-.17-.33-.35-.49-.51,11.55,6.71,30.45,5.76,41.95-.89-6.59-.14-13.6-2.44-19.27-5.32,13.31-2.32,27.11-2.64,36.97-13.59-9.49,1.31-22.97,5.97-31.91,4.32,2.3-.79,4.66-2.42,7.1-3.24-16.84,1.24-29.92-5.32-44.5-10.71,5.95-.33,13.38-.01,17.6-4.29-21.63-.72-38.54-8.88-53.25-21.82-.3-9.08-.61-17.96-.91-26.65.5.45.92.85,1.47,1.35,6.81,6.06,11.34,15.54,17.84,20.7-.7-4.99-3.15-10-5.15-14.61,9.05,4.66,10.91,16.95,21.15,20.11,2.33-5.39-1.68-10.48-3.56-15.75,3.76,7.25,17.23,14.69,25.3,12.67-3.62-3.56-9.08-4.62-11.92-8.33,7.52.1,14.83,2.34,21.81,4.69-1.51-3.02-2.34-6.56-4.71-8.99,9.06-.62,26.96,6.81,32.83,0-2.82-.36-12.05-1.91-13.03-5.1-1.6-5.26,4.35-2.94,8.23-4.47,8.8-3.47,18.12-3.61,23.71-12.4-5.61.99-11.12,2.67-16.61,4.19-34.74,9.59-58.67-5.14-84.9-22.5,5.87-1.67,12.07-3.75,17.29-4.47-5.16-3.71-11.76-6.5-16.8-10.9,9.76,1.62,18.53,4.62,28.24,3.55-2.21-1.07-4.13-2.85-6.29-4,5.54-.35,10.9-.54,16.17-2.06-3.52-6.87-16.65-6.03-22.38-13.23,8.52,3.24,29.22,3.64,32.76-6.72-14.78-.45-47.06-1.51-53.04-18.79,3.8,4.58,9.44,7.14,15.23,5.14-8.24-8.57-17.97-16.53-22.8-27.14.72-3.56.96-7.26.68-11.01,2.09,4.35,4.51,8.5,7.08,11.96,3.7-4.52,5.73-11.15,5.45-17.51,4.82.24,9.07,3.6,12.13,7.3,1.9-3.66,2.42-5.11-.55-9.15,6.71-2.62,12.34,2.84,19.37-.19-1.88-1.73-5.21-4.7-8.4-5.88,3.58.66,18.73,1.78,19.46-4.23.68-5.49-12.09-5.38-15.63-6.28-26.3-6.64-40.81-16.86-41.7-44.52-.2-6.12-.61-35.9-10.18-24.02-4.5,5.58-4.08,28.59-3.51,40.02-4.04,11.53-9.93,21.41-20.79,29.43-11.95,8.82-25.91,8.87-38.22,14.95,3.08,4.62,9.41,7.25,15.22,5.57-1.44,1.12-2.43,3.53-4.88,4.82,8.7,7.89,16.81-.05,23.81-6.52-1.29,3.74-2.45,7.39-4.75,10.66,8.87,3.02,18.47-4.11,23.17-11.24-5.9,15.33,2.31,9.35,10.16,2.34-3.7,13.97-12.39,23.32-27.84,28.72,5.49,3.53,13.47,2.98,19.39-.33-4.12,2.27-10.09,5.92-13.89,9.8,10.41,2.09,18.95-.96,25.04-6.81l-.07,3.05c-11.64,7.66-18.04,18.2-33.52,21.98-12.06,2.95-23.26,1.51-35.35.32,3.86,12.29,22.7,12.47,33.29,12.23-6.76,4.14-15.26,9.75-23.4,9.62,7.35,4.03,15.43,2.46,22.43-1.58-1.16,1.2-2.17,3.19-3.49,4.51,6.72,3.73,13.46-3.53,19.84-5.22-2.96,3.14-6.26,6.3-9.16,9.64,2.7,1.91,5.18,3.22,7.46,4.04-11.74,4.98-25.73,6.56-36.09,5.4-7.08-.8-45.82-18.5-49.1-13.62-4.08,6.07,12.9,16.62,16.57,20.08-6.6-.96-13.61-.29-19.82-2.41,5.45,8.68,17.37,11.11,27.14,12.76-3.52.68-6.74,2.79-10.07,3.79,2.15,9.82,24.41,1.5,30.97-1.86-3.57,4.92-8.78,8.59-13.91,11.35,13.74,4.95,28.82-3.82,40.13-9.52-.75,4.04-1.32,8.24-1.01,12.61-.14.02,1.19.95,1.11.79,4.6-3.5,8.84-7.83,13.95-10.82-3.89,11.06,3.4,10.84,9.85,5.57,4.46-3.66,5.65-9.54,8.75-14-1.41,6.92-3.24,15.77-4.1,17.57,0,0-1.24-.05-.45.92-14.41,28.69-56.38,44.79-86.65,41.56-10.6-1.13-19.34-7.46-29.73-9.61-.2.2-.4.41-.61.6,2.07,10.07,17.14,19.12,26.7,21.85-7.3,1.03-14.82,1.45-21.87-.35,5.79,3.3,10.28,9.47,16.46,11.68,7.88,2.81,21.87,1.32,29.8-.22-3.71,7.65-12.78,7.93-18.03,14.08,12.55,2.22,26.75-6.17,35.21-15.22-.85,9.17-2.46,15.64-6.07,24.08,7.91-.05,13.44-4.57,17.98-10.82-5.48,19.45,15.7-4.55,18.48-11.56-1.2,4.84-2.54,10.12-5.55,14.43,10.97-2.63,21.35-8.17,27.98-16.88l-.46,18.37c-8.07,11.93-11.98,21.14-30.06,26.74-25.61,7.94-41.5.83-63.87-8.91-7.04-3.07-14.17-5.1-21.85-5.66,6.54,11.37,15.5,17.82,27.79,20.69-8.17-.07-16.62.46-24.59-.67,10.71,8.23,25.82,10.44,38.75,7.45-2.1,6.96-12.07,10.13-18.16,12.57,10.14,3.55,18.33,1.15,27.87-3.05-3.56,3.91-7.66,7.73-12,10.4,12.47-1.45,23.57-3.89,34.65-10.19-.07,6.34-6.32,9.3-11.44,11.39,12.39,6.02,23.32-.37,32.03-9.68-3.41,4.07-6.39,8.45-9.3,12.92,13.89-.08,23.02-4.42,28.91-11.54l-.52,20.9c-13.8,6.59-25.37,14.12-42.83,14.73-18.22.62-36.01-2.31-54.05-.82,5.53,14.54,29.24,17.63,42.43,16.94-4.91,5.91-14.45,7.14-21.58,7.98,17.32,1.57,28.77,1.97,41.84-10.9-2.11,5.36-4.58,11.28-10.83,12.24,9.44,5.4,17.53-1.91,24.19-8.81-2.65,2.92-4.53,6.84-5.24,10.43,5.69-.92,10.34-5.49,14.43-8.98-.05,2.68,1.45,7.16,1.45,9.93-6.81,3.69-14.41,6.34-24.32,8.05-20.84,3.59-42.65,2.09-63.09-3.05-8.65-2.18-18.56-9.08-27.34-8.82-1.05,17.94,27.36,28.85,40.75,32.38-8.29,4.42-21.76,3.9-31,2.15,14.32,10.69,27.44,10.75,44.38,6.97-1.92,3.71-4.97,7.53-7.17,11.42,12.24-.99,19.06-5.37,27.89-13.27-.6,4.63-8.47,12.31-3.49,14.63,4.17,1.94,15.77-10.42,18.3-13.24-.84,4.58-3.14,9.86-5.45,13.71,21.55-.86,28.4-9.77,38.99-24.39l-.38,15.86c-20.33,21.29-34.9,39.73-68.66,39.95-21.3.13-43.16-10.13-63.93-8.65,2.23,11.63,17.48,14.7,26.71,18.08-9.8,1.14-20.04,3.4-29.79,2.1,12.51,15.64,37.07,11.28,53.56,7.28-.23,6.72-6.79,10.27-10.83,15.05,14.44,1.33,25.08-5.71,33.41-16.91-1.93,5.62-6.15,10.73-9.6,15.66,9.16,3.64,22.4-8.77,27.42-15.77-.41,2.61-1.64,8.17-2.86,11.71,11.01-4.22,19.91-14.55,21.64-25.64-.84,4.63-1.43,9.16-1.62,13.78,10.75-6.02,17.38-10,23.61-18.57l-.83,33.82c-5.03,9.22-9.73,18.62-18.07,25.4-12.95,10.54-33.19,18.4-49.21,22.72-14.42,3.89-31.9,5.23-46.78,3.62-5.21-.56-27.19-9.69-28.43-1.89-1.23,7.73,23.06,15.07,28.15,18.13-10.43,5.81-22.5,8.53-34.34,6.71,11.34,4.13,19.01,8.54,32.42,6.46,13.37-2.08,21.08-14.05,33.49-15.54-1.69,9.92-8.12,18.83-15.06,26.08-4.53,4.74-13.65,8.97-13.45,15.86,18.66,1.42,33.44-11.31,42.53-26.07-3.09,10.16-10.7,19.72-13.83,29.73,26,10.56,39.82-35.85,44.46-53.42-3.2,16.52-2.8,34.96-9.57,50.99,16.68-10.54,23.2-37.6,26-55.88,3.98,7.81,5.76,26.08,1.31,35.89,6.51-9.85,15.13-24.55,19.13-37.91l-.48,19.65c-5.71,7.71-10.04,17.01-17.53,23.53-13.19,11.5-26.82,23.02-42.01,31.77-24.12,13.88-50.86,20.99-78.18,25.23-12.79,1.98-25.2,4.9-38.22,4.15,21.96,17.56,42.69,15.16,67.91,5.46-11.63,10.6-28.64,26.24-44.34,29.96,23.02-.7,40.44-17.69,57.83-30.68-6.19,10.48-10.13,30.71-23.47,33.77,20.47-2.79,37.84-16.44,50.07-33.04-3.25,8.47-5.59,18.05-8.05,24.38,12.2-7.64,29.08-26.47,29.17-41.84-.67,9.12,1.18,22.75,4.43,30.84,5.59-2.63,12.66-11.5,18.16-21.64.52,2.14,1.66,3.81,3.72,4.7,5.92-6.59,12.99-15.11,18.95-24.16l-.81,32.46c-31.6,53.26-122.28,48.06-171.82,25.63-9.97-4.51-18.04-8.52-29.22-8.99,8.96,20.33,34.34,26.77,51.61,38.5-11.49,4.4-26.4.67-38.79.55,9.03,4,17.09,9.46,26.96,11.61,13.5,2.94,27.03-1.05,39.91.61-5.5,4.76-14.1,8.53-20.66,12.11,20.46,4.24,43.84-3.75,61.52-13.67-7.27,6.03-15.5,15.59-21.24,22.85,19.28,4.43,55.39-16.88,63.93-32.81-6.4,10.22-10.97,20.6-19.86,30.37,14.92-1.82,27.41-10.46,34.56-22.65-1.23,7.28.8,11.29,11.51.81,3.71-3.62,7.13-7.92,10.28-12.62l-.14,6.05c-12.58,14.58-24.1,29.88-41.59,39.27-12.87,6.92-31.14,7.51-42.35,16.09,10.09,4.61,26,8.37,35.87,1.13-6.81,5.65-13.87,12.49-19.87,18.86,20.9-1.88,31.54-6.74,40.11-27.25-2.06,6.73-4.8,13.98-9.59,19.35,17.79-5.06,21.81-17.61,28.04-33.26-.29,7-3.19,13.4-4.82,19.83,5.05-.34,9.36-3.42,13.05-8.22l-5.68,103.34c6.78,3.98,15.02,5.93,22.57,7.08,10.72,1.64,19.31.03,28.01-3.39.23-15.83-1.54-56.49-2.37-105.92,3.89,8.98,9.72,17.99,18.03,20.49.21-.21.42-.42.64-.62-.81-8.53-8.15-15.91-9.08-25.26,3.9,11.44,22.78,41.42,37.17,38.89-.68-9.36-6.96-17.27-14.31-22.69,9.18,7.7,24.97,14.5,36.91,10.9-17.3-14.42-37.21-23.92-51.6-42-6.5-8.16-13.58-16.67-18.63-26.04-.1-3.99-.18-8.03-.27-12.13,1.72,2.1,3.49,3.71,5.3,4.57,2.1-7.26-.64-15.77,1.35-22.88,4.86,11.04,8.6,33.34,20.51,38.76-1.53-8.1-3.67-16.22-3.44-24.91,5.82,10.84,14.42,21.35,26.03,26.7-4.45-6.2-4.62-12.99-4.06-20.59,6.97,12.46,17.68,24.71,30.31,31.63-1.88-7.73-6.54-14.97-7.17-23.04,13.24,3.26,19.81,19.64,35.09,22.53-5.01-5.86-12.89-10.38-16.78-16.41,11.58,5.03,22.09,10.5,35.26,9.65,16.37-1.05,21.28-10.44,33.54-19.07-13.52,2.17-26.83,2.97-40.52,2.38ZM208.12,594.65c-2.45,1.85-4.93,3.53-7.52,5.02,3.32-2.37,5.63-5.16,7.59-8.24l-.07,3.21Z"/>
      </g>
    </g>
  </g>
</svg>