<?xml version="1.0" encoding="UTF-8"?>
<svg id="Calque_2" data-name="Calque 2" xmlns="http://www.w3.org/2000/svg" xmlns:xlink="http://www.w3.org/1999/xlink" viewBox="0 0 566.19 1079.97">
  <defs>
    <style>
      .cls-1 {
        filter: url(#drop-shadow-2);
      }

      .cls-2 {
        fill: #212940;
      }

      .cls-3 {
        filter: url(#drop-shadow-1);
      }
    </style>
    <filter id="drop-shadow-1" x="0" y="0" width="441.94" height="1079.97" filterUnits="userSpaceOnUse">
      <feOffset dx="3.21" dy="0"/>
      <feGaussianBlur result="blur" stdDeviation="0"/>
      <feFlood flood-color="#344166" flood-opacity="1"/>
      <feComposite in2="blur" operator="in"/>
      <feComposite in="SourceGraphic"/>
    </filter>
    <filter id="drop-shadow-2" x="178.07" y="147.27" width="391.33" height="932.71" filterUnits="userSpaceOnUse">
      <feOffset dx="3.21" dy="0"/>
      <feGaussianBlur result="blur-2" stdDeviation="0"/>
      <feFlood flood-color="#344166" flood-opacity="1"/>
      <feComposite in2="blur-2" operator="in"/>
      <feComposite in="SourceGraphic"/>
    </filter>
  </defs>
  <g id="Calque_1-2" data-name="Calque 1">
    <g>
      <g class="cls-3">
        <path class="cls-2" d="M174.19,151.04c-.44,0-.43,0,0-.01h.04s-.04.01-.04.01Z"/>
        <path class="cls-2" d="M38.32,660.62c-.28-.01-.28-.04,0-.04t.06.03s-.06.01-.06.01Z"/>
        <path class="cls-2" d="M19.34,745.96c-4.8,2.15-10.97-.02-15.28,2.63,8.23,16.3,21.43,11.99,36.14,17.18-3.8,2.93-8.18,6.23-12.22,8.84,6.15,2.87,12.37,5.48,19.09,7.01,7.88,1.79,16.34-.1,23.61,3.56.39,6.39-10.66,7.2-13.3,12.55,9.17-.74,19.93-3.14,28.96-2.86-3.87,4.07-11.17,8.9-12.58,14.37,7.55-.46,16.25-1.88,23.29-4.76,6.15-2.53,12.59-8.49,19.44-4.85-2.33,5.69-8.76,9.32-10.7,15.6,9.53-2.92,17.18-13.59,27.09-14.78-2.46,5.7-8.76,9.96-9.95,15.89,11.61-3.32,20.23-15.19,31.63-18.8-1.72,4.34-12.62,16.93-3.33,13.03,8.03-3.36,11.38-14.35,20.26-16.16l-1,23.53c-19.86,7.49-43.33,10.58-62.3,11.04-23.11.56-46.62-2.06-69.09-7.66-6.91-1.73-13.99-3.85-20.49-6.81-7.57,10.47,13.68,11.23,18.6,12.42-6.63,4.73-14.08,5.35-21.92,6.29,4.83,15.14,17.23,6.35,27.19,9.6-5.82,9.28-15.6,8.23-23.54,13.06,7.71,5.78,19.07,4.03,27.97,2.61,5.78-.92,19.59-6.74,24.24-2.22-3.85,7.88-10.47,11.86-15.27,18.53,10.25-3.09,18.94-12.16,30.05-13.66-1.14,7.05-9.24,12.07-9.93,19.27,5.38-3.49,11.78-6.39,17.37-9.86,4.88-2.98,10.15-9.05,16.03-9.42-.91,6.3-5.57,13.34-7.66,19.37,7.93-6.97,14.01-16.66,22.52-22.73-.54,6.35-3.15,12.26-3.21,18.92,5.44-6.92,12.5-14.13,18.15-20.8-.86,5.26-4.81,9.82-5.12,15.18,8.67-4.3,12.19-15.07,19.25-20.01-1.12,3.73-2.95,7.84-1.73,11.82,6.86.16,13.72-14.07,17.73-18.9-.08,1.09-.11,2.45-.11,3.94l-.91,21.46c-1.51.73-3.03,1.44-4.6,1.99-14.48,5.08-30.18,10.92-45.17,14.11-23.55,5.02-47.66,3.8-70.5-2.78,2.23,6.58,7.2,9.21,13.5,11.23,6.71,2.14,20.92-.63,25.51,3.92-6.41,6.13-16.06,7.83-23.76,11.52,14.25,8.83,30.92-1.94,45.35-.97-1.52,5.81-8.05,11.42-12.85,14.78,15.38,1.1,28.27-12.67,41.14-18.88-2.04,6.66-8.33,9.55-10.68,15.18,7.41-.01,15.36-4.27,21.11-8.68,6.62-5.09,10.23-13.56,16.28-18.11-2.49,5.17-3.55,11.25-4.64,16.75,2.49-1.66,5.17-3.19,7.78-4.88l-.77,18.02c-13.04,5.62-28.12,8.88-39.71,11.33-27.67,5.85-52.54,1.05-78-10.46-7.9-3.55-15.9-7.17-23.32-11.67,3.1,13.63,9.29,17.1,18.23,26.76-7.09,3.03-14.85,3.55-22.7,3.77,9.77,13.22,29.05,16.16,44.98,17.52-9.54,6.28-23.6,4.06-33.56,8.47,16.72,13.48,37.51,9.83,56.89,7.81-6.52,7.8-17.59,9.68-22.93,18.59,16.23.38,31.78-1.15,46.8-8.03-3.84,4.66-11.73,6.77-13.61,12.46.13.13.25.25.38.37,8.75-1.16,19.53-5.27,27.03-10.15,9.39-6.11,14.21-16.49,23.39-22.87-2.78,5.11-9.2,21,1.85,17.47,5.05-1.63,8.76-6.05,12.16-11.05l-4.56,107.06,51.3-1.61-.51-98.73c13.82,15.9,34.69,25.67,56.24,21.34-5.25-9.08-18.51-21.63-25.84-29.56,17.25,13.1,37.87,25.46,60.33,24.54-9.86-9.09-20.28-17.31-27.85-28.26,17.39,3.35,32.36,16.32,50.53,19.19,11.08,1.77,23.44.65,34.11-2.82-12.11-4.62-27.41-7.68-37.23-16.37,17.54-.3,33.95,4.66,51.9,2.13,11.72-1.66,25.42-5.35,35.94-10.61-13.54-3.92-34.23-4.49-44.37-15,11.38-4.51,23.76-1.46,35.49-8.03,8.18-4.53,13.86-11.81,21.24-17.07-13.42,3.81-26.94,7.42-40.51,10.73-43.8,10.6-84.92,9.83-126.41-9.23-15.28-7.03-31.38-16.98-44-29.74l-.05-9.62c11.49,10.07,25.06,12.63,41.26,16.81-9.38-1.88-15.42-15.17-16.48-23.7,7.99,17.08,26.85,34.95,46.46,36.67-8.35-7.67-12.95-17-16.58-27.82,9.19,17.63,34.59,37.41,55.43,32.92-9.42-1.39-13.21-11.97-20.4-16.81,11.68,6.88,22.62,14.94,36.4,17.22,11,1.83,22.36-.04,33.45.13-10.8-4.66-27.12-9.4-34.78-18.44,22.07-.66,39.44-1.3,60.72-8.05-12.31-1.5-24.79-1.04-37.13-2.5-31.75-3.77-63.71-10.06-92.57-24.09-18.49-9-41.14-20.46-56.04-36.72l-.05-6.28c6.28,6.37,13.44,11.42,19.55,10.53-1.79-7.54-6.9-16.08-5.93-23.66,16.08,10.58,28.16,39.26,49.39,41.17.18-7.29-6.25-14.5-9.86-20.35,20.29,9.92,34.05,29.2,58.72,29.44-6.34-6.69-12.99-13.22-18.63-20.46,22.74,14.66,53.15,29.93,81.19,28.33-5.78-8.47-20.14-11.03-25.36-19.31,16.93.8,40.63,12.41,55.95-.56-6.61-6.73-18.44-4.88-26.36-8.64,19.75-2.26,38.91-1.76,50.71-20.26-11.34,2.97-22.69,5.23-34.44,6.02-39.14,2.58-79.13-3.3-115.69-17.29-19.05-7.28-33.98-16.58-48.4-27.68,3.34-.75,6.74-1.95,10.09-3.71-9.09-8.95-23.02-12.01-33.12-19.98,23.97,9.83,45.32,14.97,71.22,10.58-5.78-1.66-10.98-4.61-16.02-7.66,18.75,6.11,38.17,4.47,58.87,7.7-7.37-2.46-14.02-6.48-20.62-10.28,17.21,5.84,39.59,5.05,55.09,1.67-9.32-3.61-20.3-6.57-27.27-14.19,15.2,8.05,42.87,6.95,59.21,3.8-8.03-2.05-16.95-4.78-24.66-7.88,15.42-5.98,31.11-.37,44.77-13.5-13.97,1.38-30.64,1.42-43.87-3.5,19.46-2.55,33.87-7.97,49.24-20-12.7.66-25.15,4.1-37.47,7.11-39.46,9.69-75.99,21.16-117.1,20.27-20.31-.45-42.48-1.64-59.72-12.73l-.1-20.78c12.38,7.04,24.49,15.97,38.29,19.25,7.75,1.83,19.93,2.72,27.27,2.87-8.24-5.69-15.93-12.63-20.26-21.47,13.08,5.93,32.54,16.31,47.21,14.94-5.82-5.12-9.89-11.78-14.27-17.81,12.49,13.4,29.77,20.07,47.83,20.7-4.45-6.35-12.36-12.78-18.75-17.82,13.68,2.87,32.97,9.92,46.72,7.91-6.76-8.47-23.5-8-28.34-17.39,14.53-.8,28.67,5.96,43.24,1.04-14.07-6.39-29.6-12.17-41.11-22.65,19.35,2.95,40.77,12.12,59.2,1.03-10.76-.72-32.9-.7-38.83-10.39,13.53-4.97,32.32-7.1,37.79-22.51-8.6,1.04-16.23,5.7-23.96,9.3-47.28,22.01-112.7,29.81-162.27,8.33l-.04-9.48c17.23,11.19,35.42,12.02,55.66,10.85,2.22-.11,3.26-1.04,3.7-1.54-8.37-2.87-16.85-8.19-21.91-15.02-.15.06.64-1.01.65-.89,14.56.91,42.93,16.51,55.91,6.39-7.53-3.47-16.3-7.87-20.01-15.91,10.01-.94,19.92,7.61,30.41,8,11.65.44,25.69-1.52,36.79-4.94-10.76-4.84-25.53-8.1-33.24-17.53,15.89,1.84,37.98,6.79,52.73-2.22-9.81-2.05-21-4.07-29.27-10.25,20.84-.35,40.01-2.77,55.27-19.02-11.02,3.86-25.14,3.52-36.15-.1,9.45-3.05,32.86-14.75,32.22-27.39-.51-10.52-11.72,1.39-16.53,4.7-17.61,12.13-38.3,19.4-58.55,25.89-33.57,10.79-75.2,17.11-108,.33l-.04-9.11c8.75,5.91,24.48,6.05,33.65,9.01-5.34-6.72-12.37-11.88-17.63-18.85,9.8,8.94,23.15,13.67,36.24,11.38-1.6-2.07-4.56-5.26-7.73-8.19,9.64,4.84,20.39,4,31.81.76-7.12-1.37-14.95-6.24-18.97-11.9,13.5,2.34,27.97,6.55,41.82,3.81-4.05-4.13-13.57-6.9-14.84-13.32,9.5-.58,19.44,5.15,29.15,5.9,9.38.74,21.71.8,30.68-1.97-4.54-4.42-11.77-8.97-18.18-12.31,10.39,3.97,26.97,3.51,36.15.2-6.72-6.78-19.68-5.92-25.89-12.92,16.31-1.28,27.27-4.75,41.36-12.56-10.69,3.3-26.79.22-36.24-5.37,13.86-6.01,40.35-6.13,43.7-26.41-11.87,1.23-20.64,8.01-31.11,12.93-28.95,13.58-62.98,22.41-94.72,24.99-20.28,1.61-41.38,2.73-59.54-4.77l-.05-3.04c3.34,2.33,7.69,3.45,13.31,2.49,15.42-2.65-.12-13.08-6.98-16.61,15.04,4.54,26.48,14.63,43.26,10.8-3.73-2.87-8.15-6-11.77-9.4,13.67,3.9,34.49,10.01,47.85,3.02-3.59-1.38-7.44-3.69-10.41-6.61,11.71,2.79,23.68,2.23,35.3,0-6.44-1.94-14.08-5.35-19.41-9.77,18.43,1.7,33.36-.7,51.27-6.14-9.81-1.61-25.08-1.6-33.26-6.86,11.03-4.08,31.57-7.72,27.8-24.01-7.75.58-14.82,6.14-21.87,8.97-24.84,10-52.58,15.39-79.21,11.68-10.28-1.43-25.79-2.39-36.13-8.67v-6.16c2.77,3.31,6.36,4.88,10.91,2.73-3.42-2.31-7.2-4.21-10.95-6.09v-2.76c10.37,3.85,22.6,7.72,30.03,4.92,9.63-3.61-.85-7.08-4.89-12.25,15.97,14.93,40.61,11.8,59.65,5.67-9.77-3.42-19.61-6.32-27.8-12.49,17.83,2.26,33.79,4.9,50.85-2.97-7.64-3.5-16.97-5.15-23.39-10.55,15.94.73,29.83,2.06,42.85-8.94-7.89-1.75-18.29-.23-25.37-4.04,19.96-2.77,27.53-12.7,32.84-31.02-44.82,17.66-89.09,42.67-135.03,21.94l-.06-14.68c4.8,6.24,13.1,9.37,25.66,7.09-6.78-5.36-14.26-9.07-19.18-16.32,13.73,4.37,26.09,15.22,41.13,8.45-4.24-2.53-8.51-5.86-12.37-8.53,12.41,4.01,21.01,6.57,33.97,3.92-4.51-3.52-11.17-5.52-15.87-9.28,9.08-.9,21.1.83,27.84-6.54-6.46-.2-13.98,1.04-18.87-3.47,12.4.4,25.65-7.96,31.84-18.53-22.45,15.49-67.09,21.52-94.3,13.25l-.03-3.37c8.41,3.89,18.65,4.55,26.41.64-6.31-1.5-15.38-4.66-18.9-10.53,14,6.32,25.56,7.17,40.27,3.57-6.67-1.72-13.73-3.47-19.4-7.54,11.12,4.83,28.68,3.56,40.98.79-6.31-4.04-18.43-7.06-24.98-9.84,10.25,1.68,23.37,4.08,33.37.99-4.99-5.33-13.01-6.57-17.65-12.44,11.32,4.12,26.25,1.63,36.88-3.54-4.53-1.81-10.83-1.22-15.04-4.41,13.63-1.5,25.84-3.33,34.73-14.62-7.33,2.74-16.45,4.62-24.21,2.93,9.83-3.98,28.38-14.23,24.83-26.8-16.21,6.97-29.75,20.59-45.96,28.35-17.46,8.32-51.65,19.18-71.53,10.15l-.03-7.56c8.45,5.03,20.78,4.37,29.96,3.14-6.63-3.52-13.96-6.26-19.16-11.37,8.03,3.72,25.28,7.88,32.02.46-5.44-4.65-13.82-4.89-18.89-11.89,11.29,4.79,23.05,7.24,35.77,5.07-7.73-4.92-14.32-7.1-20.31-14.26,5.57,6.28,20.76,6.69,28.3,3.93-4.56-3.39-11.06-5.56-13.44-10.2,7.27.98,19.52,2.07,24.29-4.71-6.29,1.18-14.66,1.48-20.86-.61,5.95-4.08,27.21-9.42,28.53-16.9-59.44,18.17-87.09,14.38-87.09,14.38l.53-23.4c.09-3.57.11-7.15.11-10.72.86,12.63,6.94,31.35,23.44,23.45-3.58-5.81-8.88-10.47-11.95-16.84,6.19,9.59,17.08,14.9,28.61,14.01-4.49-4.99-10.32-8.75-13.65-14.71,12.24,5.16,21.2,5.98,34.16,3.85-3.43-4.85-11.25-5.5-14.14-11.24,3.61.23,20.15,7.59,21.49,2.26.78-3.22-13.78-9.11-15.78-13.16,9.2,2.96,20.82,2.37,29.06-2.81-6.26-.17-12.83-1.36-17.02-6.28,8.42-1.42,27.73-7.72,25.54-18.9-7.94.63-13.04,4.62-19.58,8.57-17.19,10.43-57.71,21.37-68.52-.16-2.55-8.78-2.19-24.48-2.79-30.64,2.57,8.14,10,19.27,22.89,19.74-3.25-5.02-9.27-8.42-12.49-14.11,8.05,5.1,16.14,6.87,25.66,6.65-6.54-4.62-13.32-9.25-17.66-16.28,5.59,5.17,13.85,6.76,21.06,4.83-4.04-3.22-9.42-4.74-14.02-7.36,7.6,1.86,14.26-1.42,19.6-6.87-4.95,1.04-9.87.04-15.04.09,7.16-3.09,20.05-11.09,16.83-19.96-8.49,7.19-11.95,15.19-24.01,16.49-4.02.44-8.5.23-12.75-.71.82.09,1.64.11,2.51.02-2.18-3.31-4.37-7.11-6.13-10.67,5.28,3.56,8.76,8.88,15.86,7.84-2.58-3.53-5.52-7.9-7.3-11.73,3.57,4.75,9.64,6.96,14.7,4.53-3.23-1.46-6.47-3.13-10.01-3.44,6.3-1.28,16.04-3.14,18.62-9.76-3.14,1.12-6.75,1.12-10.19,1.49,6.86-3.81,22.87-16.31,14.8-25.09-7.15,7.79-7.12,14.33-18.29,18.71-7.15,2.82-16.48,4.93-23.78,1.6-.48-4.74-.75-9.97-.87-15.08.85,1.04,1.76,1.86,2.65,2.26-.08-1.08.18-2.08.37-3.1,4.23,3.99,5.96,5.81,12.36,5.64-1.46-1.27-3.47-2-4.27-3.82,3.6.94,11.07,4.07,13.82,0-4.05-2.11-9.28-.4-13.35-3.38,2.27-.69,6.91.52,7.18-2.87-4.45-.9-14.95.16-18.85-4.15.05-9.62.45-17.13.57-17.28.45,2.26,4.03,10.91,14.96,10.1-2.4-1.96-5.29-4.35-5.53-6.02,6.56.29,12.71,1.89,18.24-2.01-2.68-.95-3.79-2.3-7.3-2.25,5.18-1.18,10.88-2.77,14.74-6.9-4.19-1.8-9.18-.49-13.71-1.25,6.14-5.07,12.33-14.5,10.69-22.66-7.66,1.05-11.11,12.45-18.63,13.15-3.68.36-6.28-1.05-7.95-3.38-.01-1.04-.06-2.12-.1-3.16-.24-6.86,4.74-46.28-6.02-49.44-1.49,4.07-2.4,22.75-2.96,41.92-5.01.43-12.03-2.79-14.71-4.83-.78-.6-4.03-4.22-5.2-3.05-1.32,1.3,2.96,5.76,3.72,6.54,1.76,1.88,3.74,3.36,6.1,4.35-1.6.9-3.67-.5-5.28.63,1.4,2.73,7.91,3.15,10.64,3.92-.12.24-.23.58-.43.87.28,2.16,2.8,2.26,4.88,1.76-.43,19.1-.52,36.07-.52,36.07-3.38.7-7.18.04-10.31-2.51-8.11-6.62-10.82-22.73-12.15-32.55-7.04,4.45-6.7,21.95,2.32,24.66-1.75,1.98-13.63,8-13.64,8.51-.31,6.16,12.32,3.72,15.96,2.87-4.52,4.4-11.66,5.16-17.63,6.18,5.96,4.33,15.18,6.44,22.64,4.15-3.31,1.82-7.1,3.63-10.48,5.6,5.64,1.31,11.56.37,16.91-1.64-3.92,5.07-8.97,10.43-11.87,15.78,5.33,2.63,13.02,1.23,17.1-3.42v.37c-1.26,2.12-2.5,5.06-3.4,7.1,1.15-.19,2.18-.55,3.11-.99l-.32,7.94c-4.97,1.23-10.84.99-14.19-.24-10.43-3.81-15.78-13.31-22.98-20.72,1.22,8.43,7.05,20.29,16.56,22.23-4.53,1.16-10.34,2.91-15.45,2.37,2.99,6.12,12.6,5.18,18.88,5.08-5.06,1.49-10.93,4.53-16.33,6.12,7.76,2.89,16.92,4.69,24.72,1.25-4,4.66-10.51,4.66-16.39,4.52,5.03,2.08,16.28,6.15,24.09,5.12l-.85,19.31c-3.57,2.19-8.25,3.39-11.17,3.12-7.19-.61-10.35-6.72-16.35-8.9-.46,5.31,4.83,6.22,7.88,9.23-2.29.98-5.62.68-7.94-.17.89,4.59,8.56,4.34,12.17,5.53-3.53,1.32-8.24.55-11.59-.9,5.16,6.47,11.7,8.32,19.53,6.19-2.82,1.76-6.69.44-9.72,1.65,3.38,3.82,11.44,3.01,16.42,2.5v.1c-2.76.65-5.56,1.37-8.26,2.3,1.11,1.91,4.56,2.54,8.06,2.25l-.53,13.07c-12.82,1.65-30.53-21.1-36.75-29.74-4.91-6.82-8.43-14.31-16.34-18.12,1.46,14.11,3.84,26.34,18.74,32.78-5.41,3.01-13.48,1.16-19.88,1.12,5.99,7.79,15.02,8.13,24.31,8-5.94,3.76-12.51,7.12-19.73,6.84,5.21,6.65,17.11,5.74,24.46,3.42-4.63,5.49-12.25,5.38-18.77,6.35,8.72,7.72,18.77,9.38,29.53,4.28-4.13,3.84-8.31,7.46-12.81,10.89,7.09.63,13.84-.12,20.2-3.23-4.78,3.59-9.46,7.44-13.45,11.81,5.78.88,12.69,2.48,18.94,1.77l-.57,13.41c-16.73-.91-39.43-15.21-47.25-22.03-9.5-8.29-16.69-24.5-29.47-28.4,1.64,13.31,2.71,20.92,14.74,27.82-4.28.74-8.21-.67-11.28-3.68.28,13.68,9.94,13.93,19.41,19.8-5.49,3.94-13.02,3.7-19.41,4.69,4.95,7.55,18.57,4.77,26.6,5.58-4.92,3.86-11.89,3.44-15.87,6.91,7.76,4.56,20.99,1.19,30.15,2.83-4.81,3.12-10.47,4.76-15.73,6.99,6.76,4.28,17.95-.83,25.43-2.44-3.57,5.03-8.19,9.12-11.56,14.37,8.87-1.39,18.94.06,26.58-6.11-3.23,4.56-9.61,7.67-9.53,13.98,5.91.42,11.29.78,15.5-.63l-.83,19.66c-14.93.67-33.42-12.3-43.39-19.14-15.67-10.75-30.43-23.14-41.9-38.32-2.71-3.58-5.9-11.47-10.25-12.59-1.4,10.65,9.13,21.42,16.64,27.21-2.96,2.28-6.52,4.27-9.95,5.94,1.88,5.38,10.9,7.26,15.26,10.73-2.53,2.48-6.54,3.47-9.71,2.67,3.84,3.1,4.92,7.58,9.61,10.58,4.84,3.09,11.05,4.01,15.61,7.53-2.99.94-6.31,1.2-9.59,1.27,6.37,5.23,15.6,6.38,21.81,11.41-3.74,1.64-8.3,1.09-12.51,1.24,7.24,8.7,22.17,2.31,30.54,7-5.03,3.81-12.62,3.95-17.43,8.51,7.64,1.2,22.97,4.79,30.62.52-3.32,2.56-8.58,7.27-7.72,9.67,1.91,5.11,16.16.91,19.29-.43.56-.27,1.11-.56,1.64-.81l-.76,18.09c-17.91.54-39.51-7.37-52.81-12.67-14.62-5.79-26.69-13.53-40.19-20.97-2.68,9.49,3.83,12.5,11.72,13.82-4.61,1.7-9.54,3.03-14.36,3.71,6.36,12.33,14.2,8.9,24.58,12.97-2.71,2.13-6.3,2.41-9.35,4.09-3.8,2.09-6.35,5.65-10.33,7.19,5.11,1.8,10.22,4.99,15.68,6.09,6.22,1.26,11.1-1.19,16.91-1.28-3.15,2.13-7.19,3.99-9.21,7.31,7.62,2.55,17.48-.18,25.54.16-6.21,2.86-12.74,5.07-19.61,5.95,10.46,5.28,23.63,5.04,34.2.33-3.9,3.49-11.46,4.65-13.34,9.64,11.09,5.23,23.53-.8,34.55-1.42-4.09,3.96-11.7,4.33-15.18,8.51,5.13,1.34,12.64,2.54,19.25,1.64l-.98,22.89c-19.4-2.25-36.76-8.78-55.59-18.91-14.71-7.91-27.44-18.92-40.08-29.76-4.28-3.66-7.24-8.73-11.62-12.04-7.6,6.13-2.77,19.12,3.32,24.54-3.49.69-7.13.42-10.27-1.35,2.88,2.91,2.98,7.07,5.75,10.38,3.74,4.37,8.67,5.45,13.81,7.14-3.75,3.89-13.16,6.34-18.43,8.13,10.03,4.85,23.38,8.05,34.46,7.9-3.81,3.49-9.64,4.23-14.35,5.87,5.65-.52,10.41,3.15,15.8,4.26,7.34,1.51,14.87-1.08,21.92.28-5.48,3.26-14.11,3.63-18.18,8.47,9.76,5.81,24.7.8,35.41,3.06-5.32,2.82-14.51,2.9-18.67,7.39,8.34,7.66,34.13,1.19,41.46-5.84-2.85,5.82-12.88,11.65-1.69,12.65,6.05.54,11.13-2.74,15.86-6.26l-.93,22.41c-16.39,1.21-34.9-3.65-49.14-8.17-24.11-7.66-47.46-14.09-67.13-30.84-4.01-3.41-7.53-7.39-11.71-10.61-.82,3.34-.91,11.04,1.05,13.9,2.11,3.14,5.8,2.07,8.96,4.47-5.85.46-11.53,3.7-17.4,4.65,8.48,10.16,22.07,10.82,34.84,10.68-8.14,4.37-17.39,6.19-25.08,11.59,9.12-.23,23.75,3.26,31.75-.04-4.62,1.61-10.39,3.72-12.74,8.23,5.74.97,13.21,1.59,19.04,1.47,4.8-.1,9.63-3.21,13.91-2.52-3.61,5.17-10.29,9.14-13.69,14.75,8.57,3.59,17.03-5.39,25.14-5.18-2.75,4.41-7.73,10.65-6.51,16,8.48,1,16.14-7.71,24.07-9.95.64,4.57-5.19,7.5-5.09,12.51,7.42,2.8,17.82-9.61,25.23-12.05-2.24,3.81-6.54,7.34-6.24,12.08,6.39,3.37,15.45-12.44,21.57-15.08-7.63,10.58-6.02,16.72,4.6,6.5.96-.91,2.3-2.65,3.85-4.8l-1.16,26.92c-12.7,2.52-26.29.15-39.28-1.02-19.97-1.84-34.69-8.33-52.3-17.84-4.67-2.56-8.41-5.85-12.82-8.73-3.85,13.29,7.87,15.14,16.94,20.82-4.91.55-10.12.74-15.11,1.16,4.41,10.16,15.91,8.08,24.79,11.48-4.15,1.98-8.92,2.01-13.26,3.05,7.24,6.02,25.01,8.7,34.13,6.31-4.09,2.63-8.54,4.98-11.79,8.44,10.88,3.06,21.17.04,31.58-3.62-1.85,4.53-15.46,13.87-10.63,18.43,5.04,4.75,19.97-9.07,25.44-10.21-4.16,3.95-7.02,15.46,1.31,16.63,5.3.73,14.9-8.86,19.68-13.65l-.08,1.69c-1.04,1.72-2.22,3.51-2.49,5.65.75.11,1.49.08,2.24,0l-1.07,25.44c-14.52,2.46-28.4.37-44.89-3.75-13.06-3.26-24.99-9.37-37.87-13.01-11.85-3.35-22.74-5.61-32.94-12.99-4.94-3.53-9.82-9.35-16.18-10.1-.55,15.27,7.53,23.59,21.06,29.81-5.45,2.18-9.92,6.1-15.38,7.74,4.9,1.96,11.67,2.07,16.65,3.34-5.8,4.3-14.26,4.27-19.81,9.68,10.18,8.55,24.54,2.33,36.05,1.92-5.95,5.75-14.77,7.05-21.07,11.39,9.71,6.05,27.1,5.05,37.53,2.01-4.84,4.38-11.95,6.58-16.32,11.43,8.18-1.03,16.93-3.82,25.19-5.09-2.91,3.13-7.22,5.69-8.03,9.96,15.66,3.29,25.04-15.4,38.91-15.56-5.02,6.35-10.99,12.33-15.86,18.89,7.97-1.63,14.91-5.91,22.25-9.11-1.23,5.03-6.79,8.98-5.45,15.06,4.47-1.79,22.4-15.9,26.03-13.84,3.3,1.86-.99,15.1-1.49,18.66,3.15-.64,6.29-1.89,9.34-3.47l-.46,10.86c-19.66.72-40.18-3.9-58.75-7.7-22.69-4.69-43.78-10.73-64.94-20.16-4.56-2.04-8.94-4.52-13.64-6.17.97,7.99,3.21,12.19,10.25,16.7-5.05-.8-10.59-.52-15.46-1.43,3.2,6.46,10.66,10.46,17.77,11.16-2.39,3.5-9.06,7.32-13.71,8.14,10.28,4.2,19.67,6.31,30.86,6.78-4.01,3.63-11.21,5.04-16.34,7.06,8.4,4.47,17.81,1.32,26.41,3.29-4.38,3.38-11.18,4.74-15.57,7.81,14.81,5.57,29.55-.15,43.85-4.79-1.16,4.74-6.81,6.4-9.24,10.02,10.71,1.92,25.6-8.85,34.54-4.79.03,4.56-5.5,7.91-7.35,11.79,8.88.4,15.38-7.33,24.86-6.95-1.95,4.21-7.36,6.95-9.57,11.06,7.2,1.26,19.97-5.24,25.94-8.8-3.14,4.16-5.94,9.03-5.84,14.38,3.66,1.74,9.04-.44,14.07-3.26l-.72,17.21c-3.01.36-5.93.57-8.42.79-19.59,1.64-38.85-3.18-57.49-8.76-25.33-7.57-48.26-20.8-71.12-33.79-7.07-4.01-14.08-10.27-21.88-12.65-1.33,11.96,12.69,20.9,21.09,25.91-4.09,2.46-9.53,2.19-14.05,3.5,6.17,6.75,12.09,8.26,20.4,11.53-2.73,2.41-7.2,2.7-10.62,4.43,9.58,2.31,18.86,3.86,28.86,4.14-3.86,5.12-12.96,5.41-18.15,8.79,5.53,1.02,10.98,3.04,16.63,3.94,6.73,1.05,14.15-.2,20.5,1.71-1.92,5.05-10.74,7.88-15.82,8.87,12.78,5.73,28.6,4.01,42.27,3.86-1.58,3.57-5.25,6.14-8.35,8.51,7.44,1.29,16.07-3.16,24-2.52-3.04,4.01-8.77,4.77-11.93,8.86,4.51,2.71,10.12-.26,14.96-1.37,6.14-1.37,12.41-1.23,18.49-2.75-2.3,2.26-4.91,4.04-7.65,5.7,5.74,1.61,14.01-.74,20.34-.79,7.07-.04,11.87.09,16.54-4.47l-.12,2.34c-.59,1.28-.85,2.44-.14,3.54l-.06,1.55c-15.8.47-31.33.4-47.64-.7-31.93-2.23-60.54-11.99-90.11-23.76-11.41-4.55-22.41-9.86-33.58-15.01-7.01,10.05,11.17,19.8,17.76,23.35ZM208.13,139.44c.05-.25.06-.52.11-.78,1.23,1.06,2.59,1.91,4.04,2.52-1.45-.49-2.83-1.04-4.15-1.74ZM207.27,398.62l.75.49c-.26.6-.48,1.21-.72,1.82l-.03-2.3Z"/>
        <path class="cls-2" d="M101.34,880.78s.03-.04.03-.04v.04q-.16.14-.03,0Z"/>
        <path class="cls-2" d="M284.14,567.15c.37.03.37.05,0,.03h-.04s.03,0,.04-.03Z"/>
        <path class="cls-2" d="M395.52,665.57q.37,0,.04.03c-.06,0-.1-.03-.13-.03h.09Z"/>
        <path class="cls-2" d="M288.16,764.94c.36.05.36.07,0,.07-.07,0-.09-.02-.13-.04.04,0,.06,0,.13-.03Z"/>
      </g>
      <g class="cls-1">
        <path class="cls-2" d="M273.67,544.39l.06-.02h-.06q-.34,0,0,.02Z"/>
        <path class="cls-2" d="M180.58,788.98c.15.09.29.16.43.25-.1-.16-.24-.25-.43-.25Z"/>
        <path class="cls-2" d="M181.15,789.43c.18.07.41.09.6.17-.25-.14-.5-.26-.74-.37.04.02.1.09.15.2Z"/>
        <path class="cls-2" d="M566.19,767.51c-11.06,6.41-19.16,15.98-28.78,24.15-23.98,20.42-52.3,38.69-82.82,47.37-14.12,4.02-39.19,9.53-57.86,5.89l-.51-13.01c8.04,2.89,16.45,4.09,22.76,2.83-7.48-7.46-15.03-15.01-21.76-22.89,18.93,8.91,36.54,17.05,58.21,12.85-8-7.17-18.06-12.53-25.96-20.44,19.95,3.85,33.74,15.36,55.57,11.44-8.74-8.69-20.05-16.39-28.62-25.21,13.88,8.63,50.09,17,56.51-4.95-16.7-.52-30.85-2.32-46.49-7.57,14.24.14,52.02-3.22,54.08-21.02-6.52,2.26-14.57,1.6-21.18-.14,19.66-3.59,38.83-16.74,39.09-38.55-8.85,8.1-18.42,15.66-28.51,22.16-23.37,15.1-79.19,40.71-115.92,32.23l-.02-.49c3.71-.19,8.32-1.4,14.57-4.63-5-2.46-10.63-6.42-15.14-10.63l-.16-3.98c11.86,6.85,24.64,9.92,38.8,9.47-4.94-6.15-11.95-10.15-17.26-16.17,10.67,7.06,30.59,9.57,42.33,3.98-6.89-5.13-14.67-10.05-22.06-14.77,16.41,4.45,40.47,9.74,55.2-1.82-8.49-4.25-18.66-6.39-26.28-11.58,13.76-.14,31.17,2.25,38.43-12.14-6.06-1.25-13.1-.54-19.29-2.2,10.7-1.91,27.78-6.19,26.03-20.91-4.59,2.17-9.51,3.01-14.72,2.5,9.47-6.66,24.52-17.61,23-30.73-6.73,4.09-12.6,8.98-18.85,13.66-26.55,19.97-70.42,41.08-107.07,35.03l-1.61-43.44c11.12,6.9,26.31,9.24,38.56,7.08-3.87-8.11-14.88-13.46-16.82-21.67,12,8.31,31.49,15.25,45.44,9.33-6.64-5.13-16.42-9.36-21.29-16.04,19.94,1.08,39.95,9.14,60.38,5.15-7.4-5-22.87-8.85-26.26-16.98,10.86,1.23,28.71,8.14,38.7,2.89-5.54-2.39-12.14-2.73-17.76-5.22,8.72-3.66,21.69,1.02,31.98-2.11-10.43-3.87-26.25-3.73-37.68-6.91,16.83-1.23,56.76-.44,62.31-22.28-10.29,2.34-29.38,5.09-39.21.51,6.94-2.14,24.16.3,26.87-7.62-6.73-.12-13.5-.76-20.13-1.5,19.46-6.21,29.04-18.78,31.51-38.74-8.19,6.16-15.11,13.54-23.63,19.37-20.89,14.31-40.84,29.77-64.9,38.26-15.18,5.33-30.17,10.75-46.01,13.95-6.63,1.37-15.12,3.61-23.47,4.64l-.82-20.85c8.37,3.95,18.13,6.56,26.22,4.6-2.54-7.54-9.98-13.28-14.93-19.42,10.75,8.07,33.1,10.65,45.63,6.58-6.53-4.06-16.21-5.88-19.22-13.51,9.84,1.57,27.3,7.54,36.48,2.29-6.08-4.26-15.49-6.18-19.91-12.26,11.19.81,26.47,2.6,36.94-1.94-5.63-5.91-15.13-5.57-21.21-10.93,9.1-2.68,21.78-.05,29.27-8.04-5.06-2.44-12.04-2.87-17.08-5.59,11.45-3.09,25.57-1.62,33.56-12.33-4.71-.87-10.23-.11-14.62-1.83,8.89-2.64,19.84-4.83,23.59-14.28-3.44,2-7.74,2.69-11.63,1.85,4.32-2.87,10.42-3.85,16.1-20.5-3.97,4.16-8.14,8.07-12.03,11.69-18.99,17.61-39.9,32-63.18,43.25-18.4,8.9-36.19,10.85-55.35,13.31l-.46-12.54c11.65,1.15,25.62-6.98,33.74-11.93-7.54-.05-15.26-4.18-22.53-5.81,10.48.52,23.86,1.15,33.92-2.46-4.52-5.17-11.56-7.16-17.45-9.71,11.11-3.1,26.65,2.34,36.49-4.84-5.39-2.41-13.38-3.23-18.96-6.08,10.65-2.54,20.59,2.96,30.8-4.83-5.65-2.57-12.23-4.29-17.91-8.07,15.1,2.65,27.03-2.78,40-9.02-6.3-.73-12.62-1.06-18.8-2.89,8.2-5.95,22.17-3.2,24.53-15.94-7.17,2.32-13.16,4.66-21.08,3.24,8.5-3.14,19.13-11.82,19.2-21.74-5.2,4.25-11.67,8.38-16.94,13.06,5.76-6.9,10.94-16.73,11.73-25.81-5.32,2.18-7.56,8.42-11.19,12.62-9.83,11.36-22.68,22.73-34.56,31.88-10.93,8.38-36.3,26.48-52.61,25.12l-1.19-31.64c1.37-.08,2.8-.44,4.29-1.22-.29-.47-1.34-2-1.32-1.92,11.32,7.71,30.5,7.58,41.97.09-6.19.33-11.49-2.37-16.69-5.3,11.28.1,21.39,2.31,31.38-4.62-5.67.23-11.43-.65-16.75-2.34,9.06-1.53,17.59-.92,24.29-8.05-4.67-1.19-9.84.08-14.8.02,6.13-3.05,10.86-7.38,11.57-14.2-3.81,2.76-7.53,5.59-11.47,8.13-13.2,8.57-36.6,19.97-53.09,12.93l-1.37-37.2c9.05,7.63,21.56,11.46,31.24,7.17-4.93-.71-10.42-2.7-12.68-6.47,12.17,2.89,30.78,6.2,42.05-.46-6.88-1.6-13.48-5.33-19.77-8.69,10.38-.74,26.96,2,36.83-4.15-4.78.08-9.86.11-14.28-1.29,7.53-5.32,26.8-2.83,27.03-16.36-6.04,4.16-13.47,7.1-20.76,5.25,7.55-2.01,18.54-7.28,21.72-16.44-12.71,3.78-24.29,9.04-37.56,11.57-13.65,2.57-40.79,5.92-55.05-2.49l-.47-11.86c5.79,4.72,14.52,7.44,22.28,7.95-3.23-2.46-7.28-5.53-9.37-9.47,9.97,6.47,21.77,11.31,33.38,6.46-4.79-1.75-10.35-2.75-13.8-6.44,8.62-.09,26.86,5.65,31.37-4.27-4.97-.58-10.52-.03-14.65-2.89,7.76-2.15,18.49.33,22.67-8.32-6.87,1.12-12.53,3.2-19.49,1.53,16.02-5.89,35.55-16.77,35.08-36.67-3.52,3.82-7.64,6.94-11.93,9.84-3.67,2.48-8,5.08-12.69,7.59,1.24-2.67,2.03-5.46,1.77-8.37-1.82,4.15-8.19,10.07-14.93,14.59-4.63,1.92-9.46,3.67-14.3,5.05,2.31-2.71,5.06-5.99,6.64-9.48-7.07,2.04-13.06,8.17-19.74,12.25-8.13,1.13-16.04.88-23.09-1.32l-1.08-28.77s.05.06.1.1c5.09,3.67,17.62,9.44,23.86,6.81-3.38-3.66-9.36-6.02-11.65-10.21,4.28,1.15,8.51,4.02,12.95,4.76,4.05.66,8.34-1,12.23-.43-4.81-3.23-10.93-4.84-15.18-8.85,9.43,1.69,18.03,4.66,27.24-.73-4.38-1.51-10.28-2.56-15.24-3.01,3.49-1.87,7.18-4.45,10.37-6.85-.85-.15-2.65-1.47-3.89-1.61,3.13-3.27,6.8-5.89,10.44-8.37-1.47-2.87-7.27,0-10.85-1.09,10.81-6.21,23.2-16.41,22.22-30.22-2.72,3.41-5.68,6.81-8.77,9.93-13.31,13.45-34.22,35.25-54.58,30.29l-.6-15.73c4.17,1.57,10.48,2.62,14.09,2.63,10.33.12,3.63-2.63-.78-6.65,5.48,2.3,13.92,2.35,19.17-.04-2.71-2.76-6.98-3.14-10.65-3.77,9.29-2.57,16.21-2.93,20.72-12.38-.09.1-.17.21-.27.3-2.57,1.91-5.61,2.79-8.71,3.17,5.65-4.03,19.81-11.41,14.61-20.05-6.97,6.07-10.95,13.01-19.97,16.62-5.6,2.26-21.6,6.48-28.9,1.9l-.6-16.24c3.02.85,7.04.14,10.4-1.32-1.64-.46-3.33-1.15-4.99-1.47,5.88,1.3,11.46-1.28,16.61-3.68-4.35-.66-8.35-2.62-12.58-3.57,4.81-2.3,10.52-4.64,14.56-8.49-1.65.42-4.38.8-5.41,1.05,3.74-1.28,9.34-2.57,8.88-7.48.1,0-.64-.54-.6-.45-2.04,1.06-4.12,2.17-6.12,3.06,5.46-3.35,4.43-8.43,6.13-13.51-4.2,8.24-9.4,14.7-18.95,16.72-2.36.54-5.5.6-8.31,0-.11-.51-.25-1-.42-1.44l-.34-9.4c2.16,1.69,6.41,2.67,8.59,1.67-1.78-1.1-3.45-2.86-4.64-4.58,3.72,1.11,7.75,4.55,11.96,3.32-.33-1.48-3.69-2.9-5.11-3.73,3.87-.14,8.02.69,10.88-2.49-1.94-1.21-4.56-.99-6.27-2.82,2.38-.69,5.38-.3,7.03-2.6-4.03.52-8.22,1.51-12.36,1.32-2.67-.14-7.44-1.15-10.59-3.18l-.33-9.49c3.01,1.96,7.15,3.01,9.58,1.54-1.35-2.25-4.77-2.91-6.51-5.03,3.67,1.05,11.05,2.55,14.17-.4,2.91-2.79-1.87-1.91-4.69-2.12.09-.2.11-.44.16-.67,2.74-.67,6.22-1.16,6.37-4.56-6.08,1.94-13.54,1.82-19.49-1.2,0-2.52-.15-5.19-.35-7.84l-.07-1.88c1.74-2.88,3.81-1.37,6.02-3.95,3.05-3.54-3.09-4.45-4.58-6.38-.45-.58-.76-1.17-1.03-1.85,1.16.35,2.34.56,3.58.62-.75-.55-1.44-1.17-2.02-1.83,1.01,1.06,5.3,1.32,5.7-.66.29-1.54-3.99-1.06-5.25-1.85,1.69.06,3.38-.9,4.02-2.43-2.17.27-5.11-.27-7.04-1.77.49-6.96,1.15-14.35-.89-20.18-3.01,1.18-2.09,8.04-2.35,11.53-.09,1.11-.14,2.23-.19,3.36-3.25-3.19-3.69.19-3.43,3.91.5,6.58,4.17,5.75-3.53,9.97,10.39,2.2-4.19,5.15,1.51,9.46,1.26.94,2.81.8,4.25.85-.18,3.1-.38,6.22-.66,9.3-.15,1.48-1.1,5.39-1.35,8.71-8.28-.71-13.72-10.94-16.86-17.41-4.57,2.72-.06,8.96,2.09,12.21-1.47-.47-2.93-.15-4.43-.91-1.03,6.5,8.69,9.2,13.72,9.55-1.59.4-3.2,1.74-4.48,2.38,4.48,5.24,9.89,3.94,12.49-.04.28,3.91.97,7.46-3.53,9.26-6.5,2.61-15.75,1.77-24.45-.27,2.59,4.74,5.45,6.25,10.26,6.67-1.43,2.01-6.68,2.49-8.63,1.54,10.21,10.31,22.96,1.68,29.19-4.4l-.13,23.95c-5.22,12.93-30.46-7.15-37.72-11.32,3.11,7.38,4.91,11.42,12.88,14.34-2.9.54-5.76,1.06-8.77,1.06,2.29,3.4,7.99,3.17,11.8,4.06-1.8,1.77-4.27,2.73-6.66,3.16,2.68,1.72,6.6.88,9.48-.37-1.44,2.58-4.5,4.32-6.69,6.75,6.92.29,10.8-1.39,16.27-5.19-1.02,2.9-4.03,6.27-5.37,9.28,4.35-.82,7.56-4.17,11.54-5.35-.13.9-.09,2.03-.22,2.95,1.21-.24,2.34-1.12,3.4-2.4l-.08,12.79c-11.98,10.21-33.38-4.93-42.7-13.01.29,6.91,7.03,10.48,12.57,13.29-3.16-.18-12.54-2.44-7.48,2.63,2.5,2.52,10.81,3.21,14.24,4.23-2.88,1.15-6.01,1.62-9,2.74,4.53,2.6,11.96,4.67,16.86,2.44-2.42,2.55-5.97,2.78-8.8,4.39,4.7,4.11,16.21,2.4,21.22-.81,1.44-.9,2.4-1.86,3.01-2.92l-.06,11.62c-6.16,7.2-14.29,7.86-24.83,8.52,3.06,2.7,8.15,3.89,12.12,3.18-4.64,4.97-11.72,3.28-17.48,5.26,1.28.06,2.68.57,3.95.76-3.1,2.47-10.16,2.88-14.1,2.25,4.51,8.26,18.38,1.77,25.1,1.56-4.2,2.99-9.13,6.07-14.33,6.74,10.41,4.36,23.49-4.39,29.5-14.44l-.07,15.52c-6.37,8.38-30.52,7.8-38.77,8.32h-.54c-4.42-1.36-8.4-3.66-11.25-7.53-.44,3.36,1.08,6.28,4.11,7.71h-.12c-6.88-.94-16.72-8.31-20.32-14.18-.06.06-.76.4-.89.33,1.16,5.29,5.2,10.27,9.97,13.48-9.18-.66-18.37-2.13-26.96-4.38-4.11-1.07-7.9-2.47-11.39-5.01-3.95,10.81,27.01,15.69,33.35,18.08-4.59,1.23-10.43,1.31-14.33,4.1,8.04,5.43,20.82,2.67,29.47.4-2.72,4.46-9.82,6.42-13.87,9.97,8.38,1.08,17.96-3.06,25.86-5.85-3.87,4.19-9.82,6.3-14.56,9.46,9.43,2.94,18.9.51,27.81-3.74-3.47,3.33-8.03,5.27-11.72,8.27,12.19,4.45,30.53-12.42,34.07-23.12l-.22,41.45c-25.79,16.23-74.02-3.83-98.3-13.29-7.53-2.91-14.14-6.71-22.42-7.21,2.83,13.71,18.81,21.1,30.19,26.59-6.02.18-33.3-5.01-32.65,1.26,1.09,10.2,32.68,10.7,39.58,8.98-6.13,4.21-13.52,6.32-19.53,9.91,14.6,4.86,25.68-2.58,39.79-4.7-4.73,5.55-11.23,7.28-17.39,10.01,15.7,4.79,26.76-1.22,41-5.1-3.73,7.94-10.99,15.21-20.06,15.77,12.58,3.03,29.37,2.83,42-3.59-2.78,2.48-5.57,4.93-8.45,6.84,8.29.29,19.36-3.23,26.08-9.82l-.08,19.39c-12.05,10.45-37.67,8.81-50.1,4.39,2.79,7.38,10.47,10.69,18.08,10.19-2.26,3.5-7.96,3.39-12.06,3.73,8.96,7.78,15.3,1.05,23.49-3.78.27,4.42-2.69,7.93-6.16,10.49,6.72-.32,11.78-2.4,16.76-6.94-1.97,2.79-4.73,5.8-6.65,8.21,7.37.81,12.75-2.72,16.54-8l-.12,23.65c-.19.04-.37.1-.6.12-5.12,4.82-13.75,5.74-23.03,4.74-3.86-3.61-7.31-7.44-11.63-11.66-.11,3.63,1.43,7.04,3.02,10.31-.6-.14-1.21-.26-1.82-.4-4.91-5.38-8.32-11.54-12.17-17.83-2.65,5.79-.97,10.61,2.05,15.1-2.29-.72-4.43-1.45-6.42-2.18-5.5-6.2-9.8-13.8-11.85-21.1-2.15,5.35-2.15,10.69-.72,15.8-2.97-1.42-5.92-2.93-8.82-4.53-2.68-7.72-4.32-16.27-9.68-21.66-1.83,4.24-.2,11.05,2.25,17.31-3.25-1.97-6.42-4.04-9.61-6.16-3.9-8.05-6.79-17.05-10.14-23.36-4.35,4.5-2.38,11.81,1.45,17.29-4.59-3.31-9.1-6.68-13.39-10.01-5.35-4.13-10.38-9.94-16.61-12.61-1.68,16.47,23,29.33,35.54,34.51-8.39,3.44-21.82,1.58-30.19-.88,3.5,15.77,27.36,12.03,39.36,13.92-5.31,1.91-11.89,2.98-17.5,5.33,9.4,4.4,25.24,8.13,35.64,5.32-4.44,3.7-13.28,3.79-18.15,7.93,12.25,5.91,31.58,6.94,43.88,3.7-5.19,3.43-11.46,4.32-17.08,7.09,14.53,9.35,42.85,1.02,56.14-11.33l-.14,28.31c-42.46,10.77-86.24-7.69-124.84-24.15-5.27-2.24-10.9-2.82-16.28-4.86,7.91,16.07,14.4,17.93,28.46,21.2-6.19-.3-8.51,1.37-14.29,3.49,8.5,3.91,17.06,4.38,25.54,1.11-3.56,9.22-11.32,9.84-19.35,14.53,9.08,6.11,31.63-.7,38.79-7.74-3.02,5.4-7,10.12-12.84,12.36,13.8.29,26.38,3.74,39.67-1.83-5.38,5.72-11.52,8.06-19.24,10.33,6.93,7.73,27.79,4.88,36.73,1.89-5.14,2.61-11.56,5.03-15.99,8.56,13.57,8.25,38.32.04,49.53-9.68,1-.87,2.47-2.46,4.04-4.38l-.1,20.77c-17.71,4.42-33.9,4.3-52.77,1.6-29.06-4.16-54.92-16.6-80.1-31.36-11.14-6.51-21.71-16.19-34.35-19.65,3.32,7.32,7.97,15.87,13.88,21.39,4.58,4.27,16.56,8.36,4.58,11.19-4.92,1.18-10.41.98-15.44,1.09,3.18,3.41,6.05,6.34,10.44,8.28,4.86,2.14,11.59,2.05,15.71,5.18-4.38,3.23-10.76,3.85-15.57,6.62,5.61,1.75,11.29,3.18,17.16,3.87,4.82.54,9.68.63,14.53.4,2.88-.15,8.98-2.07,11.65-1.05,5,1.94-.27,4.41-3.98,7.5-4.21,3.49-8.64,6.93-13.58,9.36,11.53.97,22.77,3.01,34.49,3.41-2.46,4.02-8.66,4.63-11.64,8.06,9.89,4.77,26.24.66,35.52-4.14-2.04,4.01-12.51,14.18-6.46,16.84,6.63,2.93,23.85-9.67,29.15-13.37.09-.09.15-.17.24-.27-1.41,4.68-11.13,15.99-5.32,17.53,4.65,1.23,15.85-6.45,19.64-8.6,3.64-2.12,7.28-4.38,10.05-7.52-2.64,5.09-4.69,13.34-6.14,17.24,10.17-3.02,20.63-8.97,28.14-16.97l-.12,17.46c-.17-.06-.35-.11-.53-.2l.53.42-.06,16.31c-11.76,5.41-29.45,2.97-41.28,2.4-16.11-.81-31.77-3.9-47.58-6.91-25.07-4.77-47.12-17.07-69.91-28.06-9.3-4.48-17.27-10.71-26.29-15.59,5.48,19.36,16.82,30.36,37,33.56-6.45,1.73-13.06,3.39-19.69,4.52,3.88,7.44,20.54,2.43,27.74,3.5-9.05,6.01-28.34,6.16-38.86,5.35,8.77,20.81,48.12,14,64.97,12.71-10.83,4.82-26.5,7.08-36.21,12.49,10.63,1.54,22.76-5.07,31.93-2.72-5.18,3.3-11.68,4.62-16.76,7.8,10.65,3.7,27.24-5.8,37.79-8.67-2.11,8.53-16.82,14.68-23.41,20.74,20.8.87,39.38-10.12,58.94-14.2-3.84,7.38-12.88,13-18.67,19.08,14.69,3.75,32.91-6.06,43.54-16.07-.69,8.45-10.78,15.37-13.38,23.98,15.35.36,34.29-6.66,43.31-19.38-.52,7.06-6.9,11.51-5.03,19.65,3.53-.89,7.61-3.46,11.6-6.98l-.1,24.17c-15.93,4.37-36.46,1.49-51.39.72-20.67-1.09-42.01-7.03-59.69-18.05-8.48-5.27-15.56-13.45-26.04-14.59,1.73,13.04,21.18,18.49,30.97,23.47-7.66,1.53-15.87,1.87-23.55.91,6.56,8.04,20.34,8.22,30.19,10.21-7.04,1.36-14.39,4.2-21.43,5.39,11.07,6.45,34.01,6.39,46.41,3.87-8.07,5.01-16.08,8.13-25.41,10.35,16.36,8.2,36.98,2.09,54.74,2.58-9.17,2.72-25.06,7.36-31.06,14.24,26.79,1.74,61.79,6.64,76.11-11.99l-.08,13.96c-.23.1-.47.2-.69.3,0-.04-.03-.07-.06-.1l.03.12c-28.85,11.07-65.93,9.11-94.14,1.01-18.21-5.2-31.16-17.63-47.98-24.47-8.36-3.41-15.6-5.74-10.43,5.64,4.27,9.39,22.96,14.03,31.77,17.25-8.2,1.66-16.32,3.92-24.8,2.17,11.69,3.59,26.92,7.48,37.63,12.02-7.14,3.36-14.89,5.39-22.19,7.76,13.78,7.85,28.26,3.68,43,3.19-6.71,3.45-14.9,5.9-20.81,10.2,18.25,7.15,44.86-6.17,63.48-8.84-5.62,6.89-13.06,13.75-22.31,17.76,17.91,3.52,37.8-3.84,50.89-15.49.16,5.91-1.67,9.6-7.83,15.11,9.3,0,18.5-3.91,24.26-9.7l-.04,7.65c-11.57,4.97-26.63,4.91-37.81,6.25-21.73,2.6-43.32,4.61-64.68-1.5-16.85-4.83-32.05-14.62-46.33-24.54-7.11-4.92-29.84-12.78-40.33-22.66.93,15.24,19.56,33.46,29.14,34.6-8.06,1.69-17.35,5.78-25.46,2.72,10.06,5.3,21.99,10,33.59,7.54-6.87,3.39-13.94,7.12-21.38,8,8.86,6.61,22.78,5.84,33.58,4.87-5.28,5.12-12.6,6.95-19.37,9.52,13.34,10.25,34.44,3.7,48.74,1.82-8.4,8.33-19.69,13.05-29.95,17.65,14.16,4.8,34.87,7.49,49.25,1.97-6.51,2.65-11.94,6.8-17.97,10.38,15.73,5.45,33.21-3.63,48.6-6.16-4.28,3.25-9.59,6.92-13.37,10.72,13.5,8.19,45.21-7.12,56.64-15.49-3.53,6.36-11.09,12.11-16.74,16.69,17.14,3.04,27.45.11,33.6-6.47l-.06,13.07c-15.59,8.42-38.79,7.3-54.89,7.73-25.8.63-52.25-1.58-77.02-9.15-8.72-2.66-17.28-6.12-26.12-8.33,3.38,13.05,18.96,24.75,32.19,26.3-9.64.51-19.16-.83-28.81-.55,5.98,14.53,35.49,11.12,48.42,12.75-8.05-.42-18.2.71-24.09,6.07,20.28,7.18,44.22-1.23,64.15-5.97-9.09,4.28-21.14,9.47-28.94,16.02,10.8.98,25.04-.62,35.42-5.87-4.91,3.29-9.71,7.06-14.45,9.93,12.53.89,33.78-6.89,44.46-13.43-4.73,7.05-12.15,12.1-17.36,18.18,19.31,2.53,22.78-11.95,33.63-22.83.46,6.79-10.61,16.4-9.31,20.62,2.56,8.41,17.67,1.11,21.71-2.36.24-.25.48-.52.75-.75l-.04,8.49c-17.62,10.73-44.08,15.76-59.57,17.94-28.25,3.99-58.44-.25-85.08-10.17-10.62-3.96-21.73-12.35-33.38-12.1,2.16,17.18,28.63,22.54,42.44,23.03.19-.17.19,2.02,0,1.83-9.02,1.26-17.7,1.83-26.23,5.7,14.12,7.17,33.51,2.87,49.12,2.66-7.6,4.82-21.69,7.87-24.7,16.68,17.99-1.19,34.19-7.1,51.05-12.12-7.25,6.15-14.96,12.06-22.49,18.36,10.8-1.45,22.66-7.62,30.03-15.52,3.7,8.48-.6,17.79.29,26.93,5.93-7.22,7.14-19.33,14.83-27.43-.88,8.59,3.96,16.43,2.1,24.72,9.7-9.12,19.6-18.38,22.25-31.49,1.86,7.08,2.13,17.25,6.77,22.84,5.9-8.66,13.46-17.25,19.49-25.75-1.14,8.19-.48,17.25-1.14,25.58,3.21-.25,8.54-5.69,14.02-13.24l-.56,115.32,39.76,5.66-4.47-118.85c4.7,7.21,9.32,14.77,14.12,21.44,2.28-4.75-.11-10.19-1.4-15.42,8.2,8.93,17.36,13.5,27.01,20.02-.48-7.1-2.53-15.04-7.96-19.96,10.03,2.6,25.53,7.87,35.07,2.97-3.47-3.73-8.08-6.65-12.87-8.7,11.03.05,30.96,4.92,34.46-10.63-.24-.25-.46-.46-.69-.7-25.15-.92-63.79-4.1-88.97-21.63l-.17-3.95c5.29,3.71,11.32,6.86,17.29,8.86-2.34-6.17-5.52-9.17-7.34-16.42,8.55,6.31,16.9,20.86,27.13,20.68-2.93-5.08-7.47-8.84-11.19-13.48,13.05,8.38,24.61,11.33,40.27,11.46-3-3.47-7.71-7.8-10.66-11.93,10.66,2.25,35.05,7.97,39.75-5.41-5.09-1.41-10.1-1.94-14.19-4.87,5.78-4.38,15-5.09,18.25-11.4-20.57,4.64-46.63,5.56-67.12.81-7.44-1.72-17.67-4.29-27.24-8.22-1.41-4.42-4.2-9.43-4.87-12.26,10.14,10.28,28.82,20.48,43.78,16.71-5.98-5.71-14.63-10.23-16.73-18.69,13.15,7.7,27.8,13.77,43.82,10.57-7.78-3.51-16.19-8.24-23.05-13.8,18.37,2.92,41.18,13.77,59.06,1.75-6.82-3.5-13.68-9.2-19.62-14.06,14.79-.39,28.94,3.02,41.97-5.56-7.22-3.33-16.37-7.29-19.62-14.78,15.85-1.57,28.47,1.06,40.43-11.46-6.22-1.77-12.68-2.44-18.61-4.9,13.06-5.04,20.48-9.83,27.41-22.18-4.99-.06-9.84.7-14.76,1.07,11.19-11.83,19.29-23.07,22.32-39.53Z"/>
      </g>
    </g>
  </g>
</svg>