<?xml version="1.0" encoding="UTF-8"?>
<svg id="Calque_2" data-name="Calque 2" xmlns="http://www.w3.org/2000/svg" viewBox="0 0 49.41 31.02">
  <defs>
    <style>
      .cls-1 {
        fill: #ca002a;
      }

      .cls-2 {
        fill: #fff;
      }

      .cls-3 {
        fill: #f12525;
      }

      .cls-4 {
        fill: #f9f2ff;
      }

      .cls-5 {
        fill: #2e4590;
      }
    </style>
  </defs>
  <g id="HOME_1" data-name="HOME 1">
    <g>
      <polygon class="cls-5" points="49.38 .07 49.38 31 49.38 31 .04 31 .04 .07 49.38 .07"/>
      <g>
        <polygon class="cls-4" points="49.38 27.78 49.38 31 49.38 31 44.24 31 29.1 21.51 27.58 20.56 25.79 19.44 25.19 19.06 23.38 17.92 22.7 17.49 22.13 17.14 20.98 16.42 20.61 16.19 20.05 15.84 14.68 12.46 12.26 10.95 .04 3.29 .04 .07 .08 0 .18 .07 5.18 .07 20.61 9.74 22.13 10.7 22.53 10.95 24.95 12.46 25.19 12.62 26.12 13.2 27.58 14.11 27.83 14.27 29.1 15.07 30.34 15.84 33.66 17.92 36.08 19.44 49.38 27.78"/>
        <polygon class="cls-3" points="49.39 30.91 49.4 31.02 46.1 31 29.1 20.35 27.65 19.44 27.58 19.4 26.12 18.48 25.24 17.92 23.62 16.91 22.13 15.98 21.91 15.84 20.98 15.25 20.61 15.02 16.53 12.46 14.12 10.95 .04 2.12 .04 0 .08 0 .18 .07 17.54 10.95 19.95 12.46 20.61 12.88 22.13 13.83 22.7 14.19 23.62 14.77 25.33 15.84 27.58 17.25 27.83 17.41 28.65 17.92 29.1 18.2 31.07 19.44 49.39 30.91"/>
      </g>
      <g>
        <polygon class="cls-4" points="49.38 .68 49.38 3.9 38.13 10.95 35.72 12.46 30.34 15.84 29.1 16.61 27.83 17.41 27.58 17.56 27.01 17.92 26.12 18.48 25.19 19.06 24.59 19.44 22.13 20.98 20.61 21.94 6.14 31 .04 31 .04 28.39 14.32 19.44 16.73 17.92 20.05 15.84 20.61 15.49 20.98 15.25 22.13 14.54 22.7 14.19 25.19 12.62 25.44 12.46 27.58 11.12 27.86 10.95 29.1 10.17 45.21 .07 48.99 .07 49.38 .68"/>
        <polygon class="cls-3" points="49.25 .84 33.13 10.95 30.71 12.46 29.1 13.48 27.83 14.27 27.58 14.43 25.33 15.84 23.62 16.91 22.7 17.49 22.13 17.85 22.01 17.92 20.61 18.8 19.59 19.44 1.15 31 .04 31 .04 29.56 16.17 19.44 18.59 17.92 20.61 16.66 20.98 16.42 21.91 15.84 22.13 15.7 23.62 14.77 26.12 13.2 27.29 12.46 27.58 12.28 29.1 11.33 29.71 10.95 47.06 .07 48.78 .07 49.38 .07 49.39 .75 49.25 .84"/>
      </g>
      <rect class="cls-2" y="10.95" width="49.41" height="8.49"/>
      <rect class="cls-3" y="12.46" width="49.41" height="5.46"/>
      <rect class="cls-1" x="22.13" y=".07" width="5.46" height="30.93"/>
      <g>
        <polygon class="cls-2" points="27.57 19.44 29.09 19.44 29.09 31 20.6 31 20.6 19.44 22.11 19.44 22.11 10.95 20.6 10.95 20.6 .07 29.09 .07 29.09 10.95 27.57 10.95 27.57 19.44"/>
        <rect class="cls-3" x="22.09" y=".07" width="5.51" height="30.93"/>
      </g>
    </g>
  </g>
</svg>