<?xml version="1.0" encoding="UTF-8"?>
<svg id="Calque_2" data-name="Calque 2" xmlns="http://www.w3.org/2000/svg" xmlns:xlink="http://www.w3.org/1999/xlink" viewBox="0 0 5028.56 855.46">
  <defs>
    <style>
      .cls-1 {
        clip-path: url(#clippath-6);
      }

      .cls-2, .cls-3 {
        fill: #6279b6;
      }

      .cls-4 {
        clip-path: url(#clippath-4);
      }

      .cls-5 {
        fill: #dce2f3;
      }

      .cls-6 {
        fill: #6279b7;
      }

      .cls-7 {
        fill: #fff;
      }

      .cls-8 {
        fill: none;
      }

      .cls-9 {
        fill: rgba(33, 41, 63, .6);
      }

      .cls-10 {
        fill: #2a1d12;
      }

      .cls-11 {
        clip-path: url(#clippath-1);
      }

      .cls-12 {
        filter: url(#drop-shadow-1);
      }

      .cls-3 {
        opacity: .2;
      }

      .cls-13 {
        clip-path: url(#clippath-5);
      }

      .cls-14 {
        clip-path: url(#clippath-3);
      }

      .cls-15 {
        fill: rgba(52, 65, 102, .6);
      }

      .cls-16 {
        fill: url(#Unnamed_Pattern_7);
        opacity: .05;
      }

      .cls-17 {
        fill: #dae0f1;
      }

      .cls-18 {
        clip-path: url(#clippath-2);
      }

      .cls-19 {
        fill: #3d2913;
      }

      .cls-20 {
        clip-path: url(#clippath);
      }

      .cls-21 {
        fill: #344166;
      }

      .cls-22 {
        fill: #c3c7e6;
      }
    </style>
    <pattern id="Unnamed_Pattern_7" data-name="Unnamed Pattern 7" x="0" y="0" width="85.04" height="85.04" patternTransform="translate(6027.72 -5498.12)" patternUnits="userSpaceOnUse" viewBox="0 0 85.04 85.04">
      <g>
        <rect class="cls-8" x="0" width="85.04" height="85.04"/>
        <path class="cls-5" d="M33.91,83.43c.72-1.05,2.06-2.84,3.81-4.44.81-.74,1.78-1.3,2.81-1.69,4.88-1.86,15.6-6.67,18.89-8.15.22-.1.14-.42-.1-.42-3.78,0-6.61-.76-7.75-1.13-.12-.04-.1-.22.03-.23,6.71-.36,15.29-.64,23.44-5.23,7.1-4,8.19-14.56,8.36-17.71.02-.3-.34-.47-.56-.26-.6.56-1.25.98-1.79,1.28-.25.14-.49-.17-.31-.39,4.06-4.92,2.66-9.53,1.41-11.9-.28-.54-1.09-.39-1.18.21-.85,5.82-6.72,9.03-9.37,10.19-1.26.55-2.23,1.6-2.7,2.89-.21.57-.36,1.14-.48,1.62-.06.24-.42.2-.42-.04-.01-.76.12-1.52.28-2.13.13-.51-.37-.95-.86-.75-7.73,3.27-15.9,4.2-19.51,4.46-1.39.1-2.6,1.01-3.06,2.33-.58,1.67-1.03,3.78-1.27,5.01-.05.23-.38.22-.41,0-.23-1.47-.32-3.78-.36-5.07-.01-.44-.48-.71-.87-.51-2.16,1.15-7.78,4.45-9.07,8.18-1.27,3.68.48,9.61,1.26,11.92.11.34-.28.63-.56.41-1.62-1.24-2.69-3.47-3.23-4.88-.16-.42-.76-.41-.9.02-2.4,7.24-.95,12.83.14,15.53.23.58,1.07.51,1.21-.09.92-3.93,4.11-13.13,14.45-18.54,12.86-6.72,19.57-7.85,28.52-15.18.12-.09.27.06.17.17-2.16,2.31-7.81,7.58-17.39,11.45-12.23,4.93-21.78,11.34-23.09,22.87-.03.28.33.42.49.19Z"/>
        <path class="cls-5" d="M1.99,10.63c-.25-.07-.38-.37-.27-.6.09-.25.39-.27.64-.36.51-.15,1.02-.32,1.53-.46,2.69-.6,4.87-2.82,5.51-5.49,0,0,.49-1.52.49-1.52.04-.16.3-.17.35,0,0,0,.12.37.12.37.48,1.5.94,3.22,2.04,4.41.72.84,1.63,1.51,2.64,1.94,1.03.41,2.05.64,3.07.97.3.07.32.54.02.64l-.37.13s-1.51.51-1.51.51c-3.37.85-5.12,3.91-5.94,7.05-.06.21-.39.22-.46,0-1.18-4.78-3.15-6.43-7.86-7.59h0ZM1.98,10.69c3.17.8,5.98,2.4,6.8,5.8.19.64.41,1.28.62,1.91.2.64,1.19.61,1.37-.03.72-3.18,2.1-6.17,5.55-7,.27-.08,1.69-.52,1.92-.59.55-.17.54-1.02-.02-1.18-1.98-.66-4.07-1.25-5.39-2.96-1.11-1.25-1.48-3.09-2.01-4.64-.22-.68-1.28-.66-1.47.03-.33,1-.62,2.07-.99,3-.82,1.92-2.49,3.42-4.5,4.04-.5.18-1.01.35-1.51.52-.23.09-.57.12-.68.42-.12.27.05.61.33.69h0Z"/>
      </g>
    </pattern>
    <filter id="drop-shadow-1" x="4300" y="-8.54" width="747" height="510" filterUnits="userSpaceOnUse">
      <feOffset dx="0" dy="10"/>
      <feGaussianBlur result="blur" stdDeviation="6"/>
      <feFlood flood-color="#6279b7" flood-opacity=".75"/>
      <feComposite in2="blur" operator="in"/>
      <feComposite in="SourceGraphic"/>
    </filter>
    <clipPath id="clippath">
      <path class="cls-8" d="M4891.61,147.66c-9.54-11.72-21.44-22.34-27.89-36.01-16.96-35.92-56.92-78.52-113.98-45.5-.19.11-.37.22-.56.32-.19.11-.37.21-.56.32-57.06,33.02-40.04,88.89-17.35,121.5,7.26,10.44,9.44,9.74,12.57,16.76,1,2.26-.33,3.18-1.73,3.56-2.67,12.17,42.93,75.72,56.2,96.51,18.86,29.55,40.52,51.16,61.43,71.48,21.57,6.87,32.69,47.37,52.08,48.45,3.93-2.76,18.64-4.51,23.32-5.01.9-.99,7.39-4.77,13.63-8.28h0c.05-.03.11-.06.16-.09.05-.03.11-.06.16-.09h0c6.16-3.66,12.67-7.41,13.97-7.7,2.77-3.81,11.62-15.69,15.97-17.72,8.72-17.35-20.85-47.17-16.06-69.3,13.21-25.82,4.5-64.17-11.72-95.25-12.34-23.64-37.89-47.23-59.65-73.96Z"/>
    </clipPath>
    <clipPath id="clippath-1">
      <path class="cls-8" d="M4720.46,223.6c-5.36-11.39-8.92-18.97-8.92-18.97l-10.52,2.89c-.42-1.37-.65-2.12-.65-2.12l-23.47-8.25c-1.09-7.46-1.76-11.98-1.76-11.98l-17.48-4.44c.34-5.74.57-9.56.64-10.72.98-2.39,1.53-3.72,1.53-3.72l-7.06,1.94-29.21-7.35s-.4,2.52-1.09,7.05l-45.96-16.5-5.9-3.59c15.84,1.27,26.13,2.09,26.13,2.09l-41.44-29.63c5.36.8,8.43,1.25,8.43,1.25l-36.25-29.8c13.39,3.22,21.9,5.27,21.9,5.27l-43.84-43.11s-115.49-37.88-175.98-46.6c-2.46-.35-4.4,2.06-3.53,4.39,4.07,10.92,16.06,36.12,41.75,41.98.91.21,1.92.44,2.99.69-12.11-1.64-23.58-2.92-33.72-3.61-4.52-.31-7.59,4.49-5.43,8.48,6.4,11.85,20.44,31.59,44.09,34.81,1.75.24,3.82.52,6.15.85-4.66-.19-9.16-.31-13.42-.35-5.76-.05-9.17,6.38-5.95,11.16,7.72,11.45,22.56,27.9,44.8,29.41,3.97.27,9.56.68,16.31,1.18-7.06.06-13.86.22-20.23.51-8.82.4-12.96,11-6.83,17.36,7.85,8.15,19.4,16.59,34.18,17.85-1.87.41-3.71.82-5.53,1.24-13.3,3.05-15.2,21.29-2.77,26.94,8.71,3.96,19.11,6.29,30.39,3.91,2.42-.51,5.5-1.15,9.11-1.89-4.1,1.51-8.14,3.04-12.08,4.56-17.12,6.63-12.67,31.91,5.68,32.49,5.73.18,11.73-.63,17.76-2.95,2.29-.88,5.2-1.99,8.62-3.28-4.87,2.82-9.64,5.63-14.24,8.42-14.97,9.07-6.59,32.07,10.74,29.56,5.41-.78,10.91-2.54,16.19-5.73,3.25-1.96,7.93-4.74,13.63-8.12-5.82,4.64-11.5,9.29-16.91,13.84-13.39,11.28-1.56,32.7,15.17,27.55,5.23-1.61,10.38-4.2,15.11-8.15,1.58-1.32,3.55-2.96,5.83-4.85-2.84,3.91-5.61,7.79-8.27,11.6-10.08,14.42,6.97,32.14,21.87,22.8,4.65-2.92,8.99-6.77,12.55-11.83,2.91-4.15,7.56-10.67,13.27-18.67-4.16,9.98-8.15,19.92-11.78,29.46-7.26,19.08,16.94,34.21,31.07,19.47,4.41-4.6,8.2-10.16,10.78-16.87,2.17-5.65,5.41-13.84,9.29-23.54-1.09,11.73-2.02,23.35-2.71,34.45-1.42,22.8,29.47,30.92,39.67,10.48,3.19-6.38,5.39-13.58,5.91-21.61.25-3.88.54-8.46.86-13.54,1.08,11.66,2.3,23.2,3.66,34.17,2.7,21.73,33.23,23.91,39.23,2.85,1.65-5.81,2.47-12.09,1.99-18.75,1.57,6.04,3.17,11.97,4.8,17.72,5.45,19.35,33.15,17.41,36.38-2.05.24.5.49,1,.73,1.5,8.23,16.82,33.52,10.09,32.51-8.6-.14-2.55-.49-5.13-1.06-7.72,2.12,3.94,4.25,7.81,6.36,11.57,8.22,14.65,30.55,7.34,28.69-9.36-.58-5.21-2.09-10.54-4.97-15.71-14.31-25.66-53.11-100.13-53.11-100.13l-24.68,10.36Z"/>
    </clipPath>
    <clipPath id="clippath-2">
      <path class="cls-8" d="M4739.02,208.66s-46.26,11.34-136.01-115.58c-24.22-32.45-190.02-71.24-240.16-82.34-.62-.14-.85.77-.24.95,28.64,8.31,94.88,27.92,141.59,44.69,61.12,21.95,82.02,31.59,99.43,53.14,17.41,21.55,93.36,109.33,136.67,102.85,43.31-6.48-1.29-3.71-1.29-3.71Z"/>
    </clipPath>
    <clipPath id="clippath-3">
      <path class="cls-8" d="M4921.26,197.89c-33.08-51.14-69.7-77.91-70.07-78.17l-.34-.24-106.39,61.56.04.41c.05.45,5,45.54,32.86,99.7,27.87,54.18,81.44,95.55,81.97,95.96l.19.1c10.28,3.28,18.21,14.44,25.88,25.24,8.28,11.66,16.09,22.67,26.29,23.23,3.35.58,11.14-3.9,12.01-4.4l.18-.15c14.99-18.74-9.44-59.7-12.87-65.26l8.44-4.88c3.1,5.75,26.45,47.34,50.17,43.68l.22-.08.07-.04c1.17-.68,8.58-5.06,9.69-8.11,4.62-9.19-1.03-21.45-7.01-34.43-5.54-12.03-11.27-24.47-8.99-35.02v-.22c-.08-.67-9.26-67.73-42.34-118.89Z"/>
    </clipPath>
    <clipPath id="clippath-4">
      <path class="cls-8" d="M4844.12,84.31c-25.54-28.72-54.76-22.66-66.14-18.72-1.87.65-3.67,1.47-5.34,2.43-7.83,4.53-10.94,11.06-12.93,16.66-5.85-1.06-13.05-1.62-20.89,2.91-1.67.97-3.28,2.12-4.77,3.42-9.08,7.9-28.9,30.21-16.73,66.67,5.42,16.23,20.25,39,44.22,49.72,17.54,7.85,36.82,7.68,55.73-.47,3.52-1.52,6.92-3.21,10.12-5.02h0s.06-.04.1-.06c.03-.02.07-.04.1-.05h0c3.17-1.87,6.33-3.98,9.4-6.28,16.5-12.34,26.25-28.96,28.18-48.09,2.65-26.12-9.7-50.32-21.07-63.11Z"/>
    </clipPath>
    <clipPath id="clippath-5">
      <path class="cls-8" d="M4838.69,89.15c-20.14-22.65-43.6-23.01-58.32-16.68-12.49,5.37-15.09,19.57-15.37,21.34-1.67-.64-15.28-5.45-26.16,2.69-12.83,9.61-24.2,30.13-14.6,58.88,9.6,28.75,44.42,64.6,90.17,44.87,3.3-1.42,6.4-2.97,9.3-4.61h0c.05-.02.11-.06.16-.09.05-.03.11-.06.16-.09h0c2.87-1.7,5.74-3.62,8.63-5.77,39.91-29.84,26.17-77.89,6.03-100.54Z"/>
    </clipPath>
    <clipPath id="clippath-6">
      <path class="cls-8" d="M4807.81,156.06l-2-1.29c-1.82-1.17-3.9-1.12-5.57-.28v-.02s-.07.04-.1.06c-.03.02-.07.03-.1.05v.02c-1.56,1.02-2.63,2.81-2.53,4.96l.12,2.38c.17,3.4,1.99,6.51,4.88,8.32l8.76,5.17c.27.17.57.2.84.15l.03.06c.05-.03.1-.07.15-.11.06-.02.12-.04.17-.07l-.03-.06c.18-.21.3-.48.29-.8l-.12-10.17c-.13-3.4-1.92-6.53-4.78-8.37Z"/>
    </clipPath>
  </defs>
  <g id="HOME_2" data-name="HOME 2">
    <g>
      <g>
        <path class="cls-6" d="M4879.49,406.67c-6.98-9.83-14.19-19.98-22.16-22.52-.4-.13-.78-.29-1.15-.48l-.19-.1c-.37-.19-.72-.42-1.05-.67-.27-.2-22.31-17.13-45.81-43.81-1.8,4.74-5.17,8.69-9.75,11.34-1.94,1.12-4.03,1.96-6.22,2.5-.72.17-1.45.31-2.32.43-2.01.28-4.03.29-6.02.05-.97-.12-1.83-.28-2.63-.48-1.25-.31-2.47-.74-3.63-1.26-1.2-.54-2.36-1.19-3.44-1.94-.69-.48-1.35-.99-1.97-1.54-2.06,3.46-5.01,6.39-8.64,8.49-.81.47-1.65.89-2.51,1.27-.61.27-1.21.5-1.83.72-1.86.65-3.79,1.08-5.73,1.29-.98.1-2.02.14-3.14.12-2.33-.05-4.59-.41-6.72-1.07-.64-.2-1.3-.43-1.93-.7-1.85-.76-3.57-1.74-5.14-2.92-.12.15-.24.29-.37.43-1.81,2.07-3.95,3.82-6.36,5.21-1.76,1.02-3.64,1.83-5.61,2.42-.04.01-.08.02-.12.04-.62.18-1.24.34-1.87.48-.06.01-.15.03-.22.04-.63.13-1.2.23-1.77.31-.08.01-.24.03-.33.04-.61.08-1.15.13-1.7.17-.15,0-.28.01-.42.02-.5.03-1.07.04-1.64.04-.09,0-.26,0-.44-.01-.54-.02-1.07-.04-1.59-.08-.17-.01-.35-.04-.53-.06-.54-.06-1.02-.12-1.5-.2-.22-.04-.42-.08-.61-.12-.51-.1-.97-.19-1.42-.3-.23-.06-.46-.12-.69-.19l1.86-7.03-2.02,6.99c-.39-.11-.78-.22-1.17-.35-.25-.08-.5-.18-.74-.27l-.23-.08c-.33-.12-.66-.25-.99-.39-.27-.12-.53-.24-.79-.36l-.27-.13c-.29-.14-.58-.28-.87-.43-.27-.14-.53-.3-.79-.45l-.28-.17c-.26-.15-.51-.3-.76-.46-.31-.2-.58-.39-.85-.59l-.23-.16c-.24-.17-.48-.34-.71-.52-.3-.23-.57-.47-.84-.7l-.21-.18c-.22-.18-.43-.37-.64-.56-.29-.27-.55-.54-.81-.82l-.12-.12c-.27-.27-.46-.47-.64-.67-.27-.3-.52-.61-.76-.92l-.11-.14c-.24-.29-.42-.51-.58-.74-.06-.08-.12-.17-.18-.25-1.12,1.79-2.44,3.44-3.95,4.93-.82.81-1.62,1.5-2.44,2.13-.89.68-1.84,1.32-2.82,1.88-8.7,5.03-19.88,4.88-28.5-.38-.64-.39-1.28-.82-1.88-1.26-4.18-3.07-7.3-7.28-9.09-12.18-2.45,3.75-5.64,6.82-9.37,8.98-3.1,1.79-6.5,2.95-10.12,3.43-1.12.15-2.29.23-3.58.24-1.18.01-2.26-.03-3.27-.14-.75-.08-1.5-.19-2.25-.32-3.78-.69-7.32-2.08-10.52-4.13-1.31-.84-2.54-1.78-3.67-2.8-1.17-1.06-2.25-2.21-3.21-3.44-.99-1.27-1.87-2.63-2.62-4.04-1.56-2.96-2.54-6.14-2.94-9.51-1.53,2.08-3.2,4.07-4.99,5.94-1.83,1.9-3.86,3.51-6.04,4.77-.58.33-1.16.64-1.75.93-1.38.66-2.82,1.2-4.29,1.59-2.14.58-4.35.87-6.56.87-.71,0-1.44-.03-2.16-.09-9.29-.79-17.58-6.45-21.62-14.77-.06-.13-.12-.25-.17-.37-1.64-3.49-2.43-7.31-2.3-11.29-.53.36-1.06.71-1.61,1.05-.27.17-.53.33-.8.48-2.31,1.33-4.74,2.27-7.25,2.78-.69.14-1.37.25-2.05.32-4.6.5-9.21-.42-13.35-2.65-2.21-1.19-4.22-2.72-5.97-4.55-1.31-1.36-2.45-2.87-3.4-4.48-.65-1.09-1.2-2.24-1.66-3.41-.71-1.83-1.19-3.73-1.41-5.65-.14-1.18-.18-2.35-.13-3.52-.08.03-.16.05-.24.07-10.89,3.35-21.9-1.09-27.4-11.05-2.87-5.21-3.66-10.87-2.52-16.14-.92.1-1.87.16-2.89.16-.57,0-1.12-.02-1.66-.06-1.22-.08-2.32-.24-3.36-.46-.75-.16-1.52-.38-2.34-.65-.95-.32-1.91-.71-2.85-1.18-1.79-.89-3.46-2.02-4.96-3.35-.69-.61-1.33-1.25-1.92-1.91-1.2-1.34-2.24-2.82-3.1-4.38-.3-.55-.58-1.11-.84-1.68-2.65-5.84-2.86-12.5-.59-18.27,0-.02.01-.04.02-.05-9.12-.65-16.66-5.92-20.29-14.25-.54-1.24-.98-2.52-1.31-3.8-1.51-5.92-.81-11.87,1.71-16.91-3.24-.57-6.48-1.44-9.73-2.59-.63-.22-1.25-.46-1.87-.7-1.17-.46-2.29-.93-3.33-1.41-1.84-.83-3.56-1.92-5.1-3.22-.63-.53-1.23-1.1-1.77-1.68-.17-.18-.33-.36-.49-.54-4.2-4.8-6-11.26-4.94-17.72.59-3.59,2.04-6.9,4.16-9.67-7.06-3.41-13.78-8.37-19.95-14.78-3.62-3.76-5.39-8.86-4.86-13.99.08-.79.22-1.59.41-2.37.38-1.54.96-3.02,1.73-4.42.08-.14.16-.28.24-.42-15.84-6.77-26.63-19.74-32.38-28.26-.77-1.15-1.38-2.39-1.8-3.68-.21-.65-.37-1.3-.48-1.95-.44-2.52-.19-5.13.72-7.54.21-.56.46-1.1.73-1.63-5.26-2.86-10.24-6.6-14.9-11.23-.94-.93-1.87-1.91-2.78-2.91-.87-.95-1.72-1.94-2.55-2.95-.81-.98-1.58-1.96-2.32-2.94-.74-.98-1.44-1.94-2.11-2.9-2.06-2.96-4-6.11-5.75-9.35-.87-1.62-1.39-3.35-1.54-5.16-.09-1.15-.03-2.31.18-3.44.21-1.1.56-2.16,1.04-3.18,1.14-2.41,2.96-4.38,5.25-5.71.15-.09.3-.17.45-.25,1.92-1.01,4.08-1.52,6.26-1.48-.27-.29-.55-.59-.82-.89-1-1.1-1.98-2.26-2.94-3.45-1.74-2.18-3.42-4.52-4.99-6.97-.71-1.11-1.41-2.26-2.08-3.42-.92-1.58-1.81-3.24-2.65-4.91-1.57-3.13-2.98-6.36-4.18-9.59-.66-1.77-.84-3.69-.51-5.54.16-.89.43-1.74.8-2.55.92-2,2.41-3.64,4.31-4.74,1.17-.68,2.45-1.11,3.79-1.3H0v855.35h5027.56l1-464.01s-148.89,15.48-149.07,15.23Z"/>
        <path class="cls-16" d="M4879.49,406.67c-6.98-9.83-14.19-19.98-22.16-22.52-.4-.13-.78-.29-1.15-.48l-.19-.1c-.37-.19-.72-.42-1.05-.67-.27-.2-22.31-17.13-45.81-43.81-1.8,4.74-5.17,8.69-9.75,11.34-1.94,1.12-4.03,1.96-6.22,2.5-.72.17-1.45.31-2.32.43-2.01.28-4.03.29-6.02.05-.97-.12-1.83-.28-2.63-.48-1.25-.31-2.47-.74-3.63-1.26-1.2-.54-2.36-1.19-3.44-1.94-.69-.48-1.35-.99-1.97-1.54-2.06,3.46-5.01,6.39-8.64,8.49-.81.47-1.65.89-2.51,1.27-.61.27-1.21.5-1.83.72-1.86.65-3.79,1.08-5.73,1.29-.98.1-2.02.14-3.14.12-2.33-.05-4.59-.41-6.72-1.07-.64-.2-1.3-.43-1.93-.7-1.85-.76-3.57-1.74-5.14-2.92-.12.15-.24.29-.37.43-1.81,2.07-3.95,3.82-6.36,5.21-1.76,1.02-3.64,1.83-5.61,2.42-.04.01-.08.02-.12.04-.62.18-1.24.34-1.87.48-.06.01-.15.03-.22.04-.63.13-1.2.23-1.77.31-.08.01-.24.03-.33.04-.61.08-1.15.13-1.7.17-.15,0-.28.01-.42.02-.5.03-1.07.04-1.64.04-.09,0-.26,0-.44-.01-.54-.02-1.07-.04-1.59-.08-.17-.01-.35-.04-.53-.06-.54-.06-1.02-.12-1.5-.2-.22-.04-.42-.08-.61-.12-.51-.1-.97-.19-1.42-.3-.23-.06-.46-.12-.69-.19l1.86-7.03-2.02,6.99c-.39-.11-.78-.22-1.17-.35-.25-.08-.5-.18-.74-.27l-.23-.08c-.33-.12-.66-.25-.99-.39-.27-.12-.53-.24-.79-.36l-.27-.13c-.29-.14-.58-.28-.87-.43-.27-.14-.53-.3-.79-.45l-.28-.17c-.26-.15-.51-.3-.76-.46-.31-.2-.58-.39-.85-.59l-.23-.16c-.24-.17-.48-.34-.71-.52-.3-.23-.57-.47-.84-.7l-.21-.18c-.22-.18-.43-.37-.64-.56-.29-.27-.55-.54-.81-.82l-.12-.12c-.27-.27-.46-.47-.64-.67-.27-.3-.52-.61-.76-.92l-.11-.14c-.24-.29-.42-.51-.58-.74-.06-.08-.12-.17-.18-.25-1.12,1.79-2.44,3.44-3.95,4.93-.82.81-1.62,1.5-2.44,2.13-.89.68-1.84,1.32-2.82,1.88-8.7,5.03-19.88,4.88-28.5-.38-.64-.39-1.28-.82-1.88-1.26-4.18-3.07-7.3-7.28-9.09-12.18-2.45,3.75-5.64,6.82-9.37,8.98-3.1,1.79-6.5,2.95-10.12,3.43-1.12.15-2.29.23-3.58.24-1.18.01-2.26-.03-3.27-.14-.75-.08-1.5-.19-2.25-.32-3.78-.69-7.32-2.08-10.52-4.13-1.31-.84-2.54-1.78-3.67-2.8-1.17-1.06-2.25-2.21-3.21-3.44-.99-1.27-1.87-2.63-2.62-4.04-1.56-2.96-2.54-6.14-2.94-9.51-1.53,2.08-3.2,4.07-4.99,5.94-1.83,1.9-3.86,3.51-6.04,4.77-.58.33-1.16.64-1.75.93-1.38.66-2.82,1.2-4.29,1.59-2.14.58-4.35.87-6.56.87-.71,0-1.44-.03-2.16-.09-9.29-.79-17.58-6.45-21.62-14.77-.06-.13-.12-.25-.17-.37-1.64-3.49-2.43-7.31-2.3-11.29-.53.36-1.06.71-1.61,1.05-.27.17-.53.33-.8.48-2.31,1.33-4.74,2.27-7.25,2.78-.69.14-1.37.25-2.05.32-4.6.5-9.21-.42-13.35-2.65-2.21-1.19-4.22-2.72-5.97-4.55-1.31-1.36-2.45-2.87-3.4-4.48-.65-1.09-1.2-2.24-1.66-3.41-.71-1.83-1.19-3.73-1.41-5.65-.14-1.18-.18-2.35-.13-3.52-.08.03-.16.05-.24.07-10.89,3.35-21.9-1.09-27.4-11.05-2.87-5.21-3.66-10.87-2.52-16.14-.92.1-1.87.16-2.89.16-.57,0-1.12-.02-1.66-.06-1.22-.08-2.32-.24-3.36-.46-.75-.16-1.52-.38-2.34-.65-.95-.32-1.91-.71-2.85-1.18-1.79-.89-3.46-2.02-4.96-3.35-.69-.61-1.33-1.25-1.92-1.91-1.2-1.34-2.24-2.82-3.1-4.38-.3-.55-.58-1.11-.84-1.68-2.65-5.84-2.86-12.5-.59-18.27,0-.02.01-.04.02-.05-9.12-.65-16.66-5.92-20.29-14.25-.54-1.24-.98-2.52-1.31-3.8-1.51-5.92-.81-11.87,1.71-16.91-3.24-.57-6.48-1.44-9.73-2.59-.63-.22-1.25-.46-1.87-.7-1.17-.46-2.29-.93-3.33-1.41-1.84-.83-3.56-1.92-5.1-3.22-.63-.53-1.23-1.1-1.77-1.68-.17-.18-.33-.36-.49-.54-4.2-4.8-6-11.26-4.94-17.72.59-3.59,2.04-6.9,4.16-9.67-7.06-3.41-13.78-8.37-19.95-14.78-3.62-3.76-5.39-8.86-4.86-13.99.08-.79.22-1.59.41-2.37.38-1.54.96-3.02,1.73-4.42.08-.14.16-.28.24-.42-15.84-6.77-26.63-19.74-32.38-28.26-.77-1.15-1.38-2.39-1.8-3.68-.21-.65-.37-1.3-.48-1.95-.44-2.52-.19-5.13.72-7.54.21-.56.46-1.1.73-1.63-5.26-2.86-10.24-6.6-14.9-11.23-.94-.93-1.87-1.91-2.78-2.91-.87-.95-1.72-1.94-2.55-2.95-.81-.98-1.58-1.96-2.32-2.94-.74-.98-1.44-1.94-2.11-2.9-2.06-2.96-4-6.11-5.75-9.35-.87-1.62-1.39-3.35-1.54-5.16-.09-1.15-.03-2.31.18-3.44.21-1.1.56-2.16,1.04-3.18,1.14-2.41,2.96-4.38,5.25-5.71.15-.09.3-.17.45-.25,1.92-1.01,4.08-1.52,6.26-1.48-.27-.29-.55-.59-.82-.89-1-1.1-1.98-2.26-2.94-3.45-1.74-2.18-3.42-4.52-4.99-6.97-.71-1.11-1.41-2.26-2.08-3.42-.92-1.58-1.81-3.24-2.65-4.91-1.57-3.13-2.98-6.36-4.18-9.59-.66-1.77-.84-3.69-.51-5.54.16-.89.43-1.74.8-2.55.92-2,2.41-3.64,4.31-4.74,1.17-.68,2.45-1.11,3.79-1.3H0v855.35h5027.56l1-464.01s-148.89,15.48-149.07,15.23Z"/>
      </g>
      <g class="cls-12">
        <path class="cls-7" d="M5017.65,413.29c-.6.35-1.26.59-1.96.72-3.37.6-6.43-.7-7.73-3.8-1.48-1.27-7.12-2.99-19.05,1.81-2.46.99-4.73,2.08-6.74,3.25-9.66,5.59-10.99,11.29-11.15,12.28.11,2.67-1.27,4.96-3.48,6.24-.54.31-1.13.57-1.77.75-1.2.35-2.42.33-3.58.03-.31,1.15-.92,2.22-1.81,3.09-.47.46-.99.84-1.53,1.16-2.21,1.28-4.88,1.33-7.14-.09-.94-.35-6.55-2.03-16.2,3.55-2.01,1.17-4.09,2.59-6.18,4.23-10.11,7.95-11.43,13.7-11.06,15.62,2.04,2.67,1.64,5.97-.55,8.59-.46.55-1,1-1.6,1.34-2.33,1.35-5.49,1.18-7.92-.2-2.26-1.29-4.04-3.44-5.43-5.87-.19.4-.37.8-.52,1.18-.62,1.52-1.73,2.75-3.09,3.54-.92.53-1.97.87-3.07.96-2.74.21-5.36-1.12-6.79-3.47-4.9-8.07-7.62-22.87,4.94-30.59,3.37-2.07,5.75-4.85,7.39-7.4-8.69-4.6-15.48-14.17-22.11-23.51-6.98-9.83-14.19-19.98-22.16-22.52-.4-.13-.78-.29-1.15-.48l-.19-.1c-.37-.19-.72-.42-1.05-.67-.27-.2-22.31-17.13-45.81-43.81-1.8,4.74-5.17,8.69-9.75,11.34-1.94,1.12-4.03,1.96-6.22,2.5-.72.18-1.45.31-2.32.43-2.01.28-4.03.29-6.02.05-.97-.12-1.83-.28-2.63-.48-1.25-.31-2.47-.74-3.63-1.26-1.2-.54-2.36-1.19-3.44-1.94-.69-.48-1.35-.99-1.98-1.54-2.06,3.46-5.01,6.39-8.64,8.49-.81.47-1.65.89-2.51,1.27-.61.27-1.21.5-1.83.72-1.86.65-3.79,1.08-5.73,1.29-.98.1-2.01.14-3.14.12-2.33-.05-4.59-.41-6.72-1.07-.64-.2-1.3-.43-1.93-.7-1.85-.76-3.57-1.74-5.14-2.92-.12.15-.24.29-.37.43-1.81,2.07-3.95,3.82-6.36,5.21-1.76,1.02-3.64,1.83-5.61,2.42-.04.01-.08.02-.12.03-.62.18-1.24.34-1.87.48-.06.01-.15.03-.22.04-.63.13-1.2.23-1.77.31-.08.01-.24.03-.33.04-.61.08-1.15.13-1.7.17-.15,0-.28.01-.42.02-.5.03-1.07.04-1.64.04-.09,0-.26,0-.44-.01-.54-.02-1.07-.04-1.59-.08-.17-.01-.35-.04-.53-.06-.54-.06-1.02-.12-1.5-.2-.22-.04-.42-.08-.61-.12-.51-.1-.97-.19-1.42-.3-.23-.06-.46-.12-.69-.19l1.86-7.03-2.02,6.99c-.39-.11-.78-.22-1.17-.35-.25-.08-.5-.18-.74-.27l-.23-.08c-.33-.12-.66-.25-.99-.39-.28-.12-.53-.24-.79-.36l-.27-.13c-.29-.14-.58-.28-.87-.43-.27-.14-.53-.3-.8-.45l-.28-.17c-.26-.15-.51-.3-.76-.46-.31-.2-.58-.39-.85-.59l-.23-.16c-.24-.17-.48-.34-.71-.52-.3-.23-.57-.47-.84-.7l-.21-.18c-.22-.18-.43-.37-.64-.56-.29-.27-.55-.54-.81-.82l-.12-.12c-.27-.27-.46-.47-.64-.67-.27-.3-.52-.61-.76-.92l-.11-.14c-.24-.29-.41-.51-.58-.74-.06-.08-.12-.17-.18-.25-1.12,1.79-2.44,3.44-3.95,4.93-.82.81-1.62,1.5-2.44,2.13-.89.68-1.84,1.32-2.82,1.88-8.7,5.03-19.88,4.88-28.5-.38-.64-.39-1.28-.82-1.88-1.26-4.18-3.07-7.3-7.28-9.09-12.18-2.45,3.75-5.64,6.82-9.37,8.98-3.1,1.79-6.5,2.95-10.12,3.43-1.12.15-2.29.23-3.58.24-1.18.01-2.26-.03-3.27-.14-.75-.08-1.5-.19-2.25-.32-3.78-.69-7.32-2.08-10.52-4.13-1.31-.84-2.54-1.78-3.67-2.8-1.17-1.06-2.25-2.21-3.21-3.44-.99-1.27-1.87-2.63-2.62-4.04-1.56-2.96-2.54-6.14-2.94-9.51-1.53,2.08-3.2,4.07-4.99,5.94-1.83,1.9-3.86,3.51-6.04,4.77-.58.33-1.16.64-1.75.93-1.38.66-2.82,1.2-4.29,1.59-2.14.58-4.35.87-6.56.87-.71,0-1.44-.03-2.16-.09-9.29-.79-17.58-6.45-21.62-14.77-.06-.13-.12-.25-.17-.37-1.64-3.49-2.43-7.31-2.3-11.29-.53.36-1.06.71-1.61,1.05-.27.17-.53.33-.8.48-2.31,1.33-4.74,2.27-7.25,2.78-.69.14-1.37.25-2.05.32-4.6.5-9.21-.42-13.35-2.65-2.21-1.19-4.22-2.72-5.97-4.55-1.31-1.36-2.45-2.87-3.4-4.48-.64-1.09-1.2-2.24-1.66-3.41-.71-1.83-1.19-3.73-1.41-5.65-.14-1.18-.18-2.35-.13-3.52-.08.03-.16.05-.24.07-10.89,3.35-21.9-1.09-27.4-11.05-2.87-5.21-3.66-10.87-2.52-16.14-.92.1-1.87.16-2.89.16-.57,0-1.12-.02-1.66-.06-1.22-.08-2.32-.24-3.36-.46-.75-.16-1.52-.38-2.34-.65-.95-.32-1.91-.71-2.85-1.18-1.79-.89-3.46-2.02-4.96-3.35-.69-.61-1.33-1.25-1.92-1.91-1.2-1.34-2.24-2.82-3.1-4.38-.3-.55-.58-1.11-.84-1.68-2.65-5.84-2.86-12.5-.59-18.27,0-.02.01-.04.02-.05-9.12-.65-16.66-5.92-20.29-14.25-.54-1.24-.98-2.52-1.31-3.8-1.51-5.92-.81-11.87,1.71-16.91-3.24-.57-6.48-1.43-9.73-2.59-.63-.22-1.25-.46-1.87-.7-1.17-.46-2.29-.93-3.33-1.41-1.84-.84-3.56-1.92-5.1-3.22-.63-.53-1.23-1.1-1.77-1.68-.17-.18-.33-.36-.49-.54-4.2-4.8-6-11.26-4.94-17.72.59-3.59,2.04-6.9,4.16-9.67-7.06-3.41-13.78-8.37-19.95-14.78-3.62-3.76-5.39-8.86-4.86-13.99.08-.79.22-1.59.41-2.37.38-1.54.96-3.02,1.73-4.41.08-.14.16-.28.24-.42-15.84-6.77-26.63-19.74-32.38-28.26-.77-1.15-1.38-2.39-1.8-3.68-.21-.65-.37-1.3-.48-1.95-.44-2.52-.19-5.13.72-7.54.21-.56.46-1.1.73-1.63-5.26-2.86-10.24-6.6-14.9-11.23-.94-.93-1.87-1.91-2.78-2.91-.87-.95-1.72-1.94-2.55-2.95-.81-.98-1.58-1.96-2.32-2.94-.74-.98-1.44-1.94-2.11-2.9-2.06-2.96-4-6.11-5.75-9.35-.87-1.62-1.39-3.36-1.54-5.16-.09-1.15-.03-2.31.18-3.44.21-1.1.56-2.16,1.04-3.18,1.14-2.41,2.96-4.38,5.25-5.71.15-.09.3-.17.45-.25,1.92-1.01,4.08-1.52,6.26-1.48-.28-.29-.55-.59-.82-.89-1-1.1-1.98-2.26-2.94-3.45-1.74-2.18-3.42-4.52-4.99-6.97-.71-1.11-1.41-2.26-2.08-3.42-.92-1.58-1.81-3.24-2.65-4.91-1.57-3.13-2.98-6.36-4.18-9.59-.66-1.77-.84-3.69-.51-5.54.16-.89.43-1.74.8-2.55.92-2,2.41-3.64,4.31-4.74,1.21-.7,2.53-1.15,3.92-1.33.93-.12,1.89-.11,2.84.02,2.86.41,5.91.9,9.07,1.45,4,.69,8.36,1.52,12.95,2.44,1.12.23,2.24.46,3.37.69.65.14,1.31.27,1.97.41.29-.23.6-.44.92-.62,1.68-.97,3.66-1.28,5.57-.85,27.11,6,80.08,18.31,130.31,33.3,65.32,19.49,102.64,36.43,114.11,51.79.03.05.54.75.54.75,67.58,95.38,109.11,109.88,122.96,111.86-1.74-1.91-4.01-4.54-7.03-8.89-8.84-12.7-28.56-46.03-20.77-81.01,4.67-20.97,18.28-38.1,40.45-50.93l1.11-.64c35.59-20.6,63.59-12.57,80.81-2.22,23.51,14.14,37.28,37.96,43.39,50.9,4.13,8.74,10.87,16.26,18.01,24.22,2.98,3.33,6.06,6.76,8.94,10.3,7.13,8.76,14.76,17.28,22.14,25.51,15.25,17.02,29.66,33.1,38.32,49.68,10.02,19.2,16.56,39.79,18.41,57.98,1.6,15.67-.17,29.43-5.24,40.92v.16c-.02.42-.08.83-.16,1.24-1.77,8.18,3.44,19.49,8.49,30.43,4.79,10.39,9.7,21.04,9.35,30.89,3.03-.14,6.63-.82,10.11-2.72,12.95-7.05,24.43,2.69,28.99,10.96,1.33,2.41,1.18,5.36-.37,7.63-.62.91-1.43,1.65-2.35,2.18-1.38.8-3,1.14-4.63.91-.4-.05-.83-.1-1.26-.13,1.42,2.41,2.4,5.03,2.39,7.64-.01,2.8-1.44,5.62-3.77,6.97Z"/>
        <g>
          <g class="cls-20">
            <path class="cls-2" d="M4891.61,147.66c-9.54-11.72-21.44-22.34-27.89-36.01-16.96-35.92-56.92-78.52-113.98-45.5-.19.11-.37.22-.56.32-.19.11-.37.21-.56.32-57.06,33.02-40.04,88.89-17.35,121.5,8.63,12.4,11.91,28.01,17.32,42.12,12.34,32.18,20.05,66.09,34.4,88.57,18.86,29.55,47.77,56.21,76.74,57.63,21.57,6.87,32.69,47.37,52.08,48.45,3.93-2.76,18.64-4.51,23.32-5.01.9-.99,7.39-4.77,13.63-8.28h0c.05-.03.11-.06.16-.09.05-.03.11-.06.16-.09h0c6.16-3.66,12.67-7.41,13.97-7.7,2.77-3.81,11.62-15.69,15.97-17.72,8.72-17.35-20.85-47.17-16.06-69.3,13.21-25.82,4.5-64.17-11.72-95.25-12.34-23.64-37.89-47.23-59.65-73.96Z"/>
            <path class="cls-15" d="M4850.49,86s-34.31-45.67-81.91-21.83c-47.6,23.84-47.33,64.59-47.33,64.59,0,0-6.36,44.49,55.01,80.36,0,0,1.2,76.61,99.39,159.62,0,0,92.9-33.51,93.49-96.84,0,0,19.87,57.93-19.26,80.82-39.13,22.89-90.36,48.34-90.36,48.34l-119.91-84.69-49.86-124.15-8.1-69.92,56.06-74.44,70.6-14.92,44.29,33.42-2.12,19.64Z"/>
          </g>
          <path class="cls-21" d="M4959.6,362.02c-13.86-14.7-39.27-22.14-50.92-20.13l-.04-.07s-.05.06-.07.09c-.04,0-.08.01-.12.02l.04.07c-7.54,9.1-13.76,34.84-7.91,54.18,6.84,22.63,12.03,36.02,36.01,23.73,3.58-1.83,8.39-4.72,12.79-7.46,4.57-2.45,9.47-5.19,12.84-7.38,22.61-14.67,13.58-25.84-2.63-43.05Z"/>
          <g>
            <path class="cls-19" d="M4979.04,386.16s11.81,3.51,23.1-2.63c11.3-6.15,19.14,8.08,19.14,8.08,0,0-11.47-1.57-15.6,2.77,0,0,8.47,7.21,8.46,11.92,0,0-5.76-9.96-27.96-1.02-22.19,8.93-22.46,21.99-22.46,21.99,0,0-8.86-15.98-1.51-22.19,0,0,2.87-8.89,6.74-15.04,3.87-6.15,10.08-3.86,10.08-3.86Z"/>
            <path class="cls-10" d="M4911.82,425.06s-2.84,11.99-13.8,18.72c-10.96,6.73-2.53,20.62-2.53,20.62,0,0,4.35-10.73,10.17-12.14,0,0,2.03,10.94,6.12,13.27,0,0-5.76-9.96,13.04-24.75,18.81-14.79,30.26-8.52,30.26-8.52,0,0-9.44-15.64-18.49-12.36,0,0-9.14-1.94-16.4-1.65-7.26.29-8.37,6.81-8.37,6.81Z"/>
          </g>
          <g>
            <g class="cls-11">
              <path class="cls-17" d="M4718.44,224.45s29.27,66.24,56.08,113.99c8.22,14.65,30.55,7.34,28.69-9.36-.58-5.21-2.09-10.54-4.97-15.71-14.31-25.66-53.11-100.13-53.11-100.13l-26.69,11.2Z"/>
              <path class="cls-17" d="M4681.52,212.86s28.38,75.53,55.19,130.34c8.23,16.82,33.52,10.09,32.51-8.6-.32-5.84-1.66-11.86-4.54-17.79-14.3-29.45-53.15-112.18-53.15-112.18l-30.01,8.23Z"/>
              <path class="cls-17" d="M4665.91,193.28s15.67,86.48,33.7,150.46c5.53,19.63,33.95,17.36,36.52-2.87.8-6.32.53-13.03-1.4-19.95-9.58-34.35-34.36-115.53-34.36-115.53l-34.46-12.11Z"/>
              <path class="cls-17" d="M4642.12,176.77s2.67,94.33,11.47,165.15c2.7,21.73,33.23,23.91,39.23,2.85,1.87-6.58,2.67-13.75,1.74-21.4-4.62-38.01-19.43-138.21-19.43-138.21l-33.01-8.39Z"/>
              <path class="cls-17" d="M4623.55,160.87s-15.45,97.24-20.06,171.55c-1.42,22.8,29.47,30.92,39.67,10.48,3.19-6.38,5.39-13.58,5.91-21.61,2.59-39.87,9.24-151.67,9.24-151.67l-34.76-8.75Z"/>
              <path class="cls-17" d="M4617.7,177.84s-38.98,78.88-62.65,141.06c-7.26,19.08,16.94,34.21,31.07,19.47,4.41-4.6,8.2-10.16,10.78-16.87,12.79-33.33,62.91-155.22,62.91-155.22l-42.11,11.56Z"/>
              <path class="cls-17" d="M4601.13,192.43s-49.15,57.72-81.99,104.71c-10.07,14.42,6.97,32.14,21.87,22.8,4.65-2.92,8.99-6.77,12.55-11.83,17.69-25.17,98.87-137.69,98.87-137.69l-51.3,22.01Z"/>
              <path class="cls-17" d="M4597.05,191.37s-62.1,42.87-105.76,79.62c-13.39,11.27-1.56,32.7,15.17,27.55,5.23-1.61,10.38-4.2,15.11-8.15,23.48-19.65,130.46-107,130.46-107l-54.99,7.98Z"/>
              <path class="cls-17" d="M4584.43,179.1s-67.97,32.78-116.78,62.35c-14.97,9.07-6.59,32.07,10.74,29.56,5.41-.78,10.91-2.54,16.19-5.73,26.23-15.8,145.41-85.59,145.41-85.59l-55.56-.6Z"/>
              <path class="cls-17" d="M4581.82,163.77s-76.18,21.4-131.98,43c-17.12,6.63-12.67,31.9,5.68,32.49,5.73.18,11.73-.63,17.76-2.95,29.97-11.51,165.8-61.75,165.8-61.75l-57.26-10.79Z"/>
              <path class="cls-17" d="M4571.43,149.6s-87.17,10.1-146.25,23.66c-13.3,3.05-15.2,21.29-2.77,26.94,8.71,3.96,19.11,6.29,30.39,3.91,31.41-6.63,173.47-34.81,173.47-34.81l-54.84-19.69Z"/>
              <path class="cls-17" d="M4561.94,142.56s-98.18-8.49-158.56-5.76c-8.82.4-12.96,11-6.83,17.36,8.56,8.88,21.51,18.14,38.25,18.03,32.11-.21,176.92.64,176.92.64l-49.78-30.27Z"/>
              <path class="cls-17" d="M4545.83,113.52s-113.51-18.4-177.39-18.99c-5.76-.05-9.17,6.38-5.95,11.16,7.72,11.45,22.56,27.9,44.8,29.41,34.4,2.34,189.44,14.81,189.44,14.81l-50.9-36.4Z"/>
              <path class="cls-17" d="M4515.38,81.8s-115.15-26.71-178.34-31.05c-4.52-.31-7.59,4.49-5.43,8.48,6.4,11.85,20.44,31.59,44.09,34.81,34.17,4.65,188.01,27.51,188.01,27.51l-48.34-39.74Z"/>
              <path class="cls-17" d="M4505.54,53.9s-115.49-37.88-175.98-46.6c-2.46-.35-4.4,2.06-3.53,4.39,4.07,10.92,16.06,36.12,41.75,41.98,33.03,7.53,181.61,43.34,181.61,43.34l-43.84-43.11Z"/>
              <path class="cls-22" d="M4326.02,11.7c6.5,16.49,18.46,31.89,35.13,38.69,8.33,3.3,17.43,4.17,26.12,6.29,26.49,5.74,52.83,12.11,79.12,18.66,15.31,3.88,37.38,9.52,52.43,13.71-15.18-3.21-37.5-8.29-52.89-11.79-18.65-4.29-61.14-14.15-79.16-18.31-8.79-2.24-17.99-3.11-26.38-6.76-16.91-7.4-28.75-23.32-34.36-40.5h0Z"/>
              <path class="cls-22" d="M4331.61,59.23c11.21,20.86,30.62,34.57,54.59,34.92,13.67,1.16,27.46,2.95,41.05,4.72,35.75,5.01,73.15,10.91,108.65,17.6-35.41-4.63-73.75-10.36-109-15.06-13.54-1.87-27.28-3.78-40.89-5.05-24.18-.66-44.4-15.43-54.41-37.13h0Z"/>
              <path class="cls-22" d="M4362.49,105.7c9.52,13.16,22.87,24.81,39.18,27.81,1.02.27,3.89.42,4.99.55,9.13.34,18.27,1.01,27.38,1.6,44.94,3.12,91.82,7.19,136.56,12.17-30.96-1.67-78.03-5.32-109.4-7.66-18.22-1.51-36.43-2.92-54.66-4.15-1.09-.16-4.15-.39-5.21-.71-16.55-3.42-29.99-15.69-38.84-29.62h0Z"/>
              <path class="cls-22" d="M4396.54,154.17c7.83,7.68,17.45,13.81,28.21,16.11,3.52.83,7.15.83,10.84.95,7.36.09,14.74.15,22.12.15,36.68.11,74.07.15,110.69,1.22-44.28,1.55-88.58,2.01-132.87.62-15.19.11-29.17-7.81-38.98-19.05h0Z"/>
              <path class="cls-22" d="M4422.41,200.2c10.19,4.88,21.82,5.34,32.63,2.6,47.55-10.27,95.29-19.89,143.26-27.95-43.73,10.27-87.75,19.17-131.88,27.54-5.27.9-14.19,2.91-19.47,3.23-8.44.44-17.17-1.21-24.54-5.41h0Z"/>
              <path class="cls-22" d="M4455.51,239.25c13.5.6,25.32-7.18,37.45-11.91,36.94-14.87,74.47-28.18,112.39-40.3-35.54,14.26-75.56,28.73-111.66,42.15-12.31,4.43-24.67,11.68-38.18,10.05h0Z"/>
              <path class="cls-22" d="M4478.39,271.01c7.26-1.32,13.79-4.53,19.87-8.62,0,0,18.7-11.44,18.7-11.44,37.52-22.67,75.34-44.88,113.83-65.87-37.03,23.48-74.78,45.77-112.81,67.58,0,0-19.08,10.8-19.08,10.8-6.25,3.73-13.18,6.8-20.51,7.55h0Z"/>
              <path class="cls-22" d="M4506.47,298.55c4.76-2.04,9.43-4.38,13.54-7.54,2.54-2.13,16.94-14.45,19.78-16.85,31.86-26.79,64.08-53.16,97.16-78.44-31.25,27.51-63.39,53.95-95.88,79.97-3.04,2.36-17.61,14.04-20.49,16.09-4.33,2.96-9.16,5.11-14.11,6.76h0Z"/>
              <path class="cls-22" d="M4541.01,319.94c5.24-3.9,9.94-8.48,13.34-14.01,3.68-5.39,7.37-10.77,11.1-16.12,22.41-32.09,45.28-63.88,69.26-94.83-21.63,32.63-44.41,64.47-67.63,95.98-3.87,5.25-7.79,10.47-11.71,15.68-3.81,5.38-8.81,9.88-14.36,13.29h0Z"/>
              <path class="cls-22" d="M4586.13,338.38c3.8-5.34,7.74-10.86,10.14-16.96,0,0,7.12-18.61,7.12-18.61,14.48-37.14,29.47-74.09,45.74-110.49-13.59,37.48-28.48,74.45-43.88,111.21-2.57,6.13-5.18,12.23-7.82,18.34-2.85,6.12-6.99,11.39-11.3,16.5h0Z"/>
              <path class="cls-22" d="M4643.16,342.9c2.02-5.75,3.73-11.63,4.67-17.61.86-5.12.94-12.89,1.29-18.16,1.87-36.56,3.98-73.1,7.52-109.54-.65,36.61-2.67,73.17-5.53,109.68-.59,6.1-.8,12.23-2.06,18.26-1.38,6-3.34,11.83-5.9,17.38h0Z"/>
              <path class="cls-22" d="M4692.82,344.77c1.38-7.09,2.33-14.25.89-21.33-.45-2.66-1.61-10.05-2.04-12.83-5.24-34.23-9.94-68.52-13.25-103,6.18,34.08,10.98,68.4,15.23,102.76.33,2.79,1.22,10.18,1.52,12.89,1.08,7.21-.32,14.59-2.35,21.5h0Z"/>
              <path class="cls-22" d="M4730.65,351.81c5.54-4.87,5.69-15.95,4.9-22.81-.35-2.66-.96-5.35-1.85-7.78-2.51-8.09-4.99-16.19-7.41-24.32-4.86-16.23-9.55-32.52-14.01-48.87-2.22-8.18-4.39-16.38-6.44-24.6,2.76,8.02,5.41,16.07,8,24.14,5.16,16.14,10.1,32.35,14.87,48.62,2.4,8.13,4.72,16.27,7.03,24.43.78,2.32,1.41,5.52,1.65,8.18.61,7.35-.16,18.48-6.74,23.02h0Z"/>
              <path class="cls-22" d="M4769.22,334.59c-.59-9.61-5.63-18.25-9.86-26.66-12.8-25.8-25.11-51.84-36.14-78.45,13.64,25.37,26.04,51.36,37.94,77.58,3.9,8.59,8.53,17.83,8.06,27.52h0Z"/>
              <path class="cls-22" d="M4803.22,329.08c-1.32-10.41-7.87-18.77-12.49-27.97-14.76-27.22-29.04-54.72-42.07-82.83,15.59,26.77,29.94,54.19,43.82,81.87,4.32,9.27,10.42,18.39,10.74,28.93h0Z"/>
            </g>
            <path class="cls-22" d="M4776.32,266.34s8.01,32.92-9.91,25c-17.92-7.91-16.26-23.2-16.26-23.2,0,0-4.85,19.61-22.48,16.47-17.63-3.14-14.14-24.43-14.14-24.43,0,0-18.11,25.06-31.97,13.06-13.86-11.99-2.12-37.81-2.12-37.81,0,0-12.21,16.07-30.11,9.02s-9.69-31.69-9.69-31.69c0,0-11.41,7.79-24.14,1.86-15.94-7.43,3.22-29.04,3.22-29.04,0,0-14.53,20.87-30.82,14.62-21.06-8.07,7.54-27.09,7.54-27.09,0,0-29.67,10.93-41.99-5.1-13.01-16.93,14.6-27.72,14.6-27.72,0,0-35.03,4.37-47.19-11.97-10.37-13.93,15.42-22.02,15.42-22.02,0,0-28.06,5-36.33-11.59-8.06-16.17,27.92-13.19,27.92-13.19,0,0-43.21-3.52-41.44-21.23,1.77-17.71,44.64-.14,44.64-.14,0,0,59.14,22.25,77.23,48.94,18.09,26.69,80.21,87.47,103.2,95.53,22.99,8.06,40.2,4.8,40.2,4.8l24.59,56.92Z"/>
            <g class="cls-18">
              <path class="cls-2" d="M4739.02,208.66s-46.26,11.34-136.01-115.58c-24.22-32.45-190.02-71.24-240.16-82.34-.62-.14-.85.77-.24.95,28.64,8.31,94.88,27.92,141.59,44.69,61.12,21.95,82.02,31.59,99.43,53.14,17.41,21.55,93.36,109.33,136.67,102.85,43.31-6.48-1.29-3.71-1.29-3.71Z"/>
              <path class="cls-15" d="M4770.18,215.01s-54.77,18.9-85.82-10.84c-31.04-29.74-103-83.54-86.55-90.63,12.57-5.42,11.81-14.2-7.51-40.33-1.83-2.48,17.16-5.56,19.44-3.49l160.43,145.29Z"/>
            </g>
          </g>
          <g class="cls-14">
            <path class="cls-17" d="M4921.26,197.89c-33.08-51.14-69.7-77.91-70.07-78.17l-.34-.24-106.39,61.56.04.41c.05.45,5,45.54,32.86,99.7,27.87,54.18,81.44,95.55,81.97,95.96l.19.1c10.28,3.28,18.21,14.44,25.88,25.24,8.28,11.66,16.09,22.67,26.29,23.23,3.35.58,11.14-3.9,12.01-4.4l.18-.15c14.99-18.74-9.44-59.7-12.87-65.26l8.44-4.88c3.1,5.75,26.45,47.34,50.17,43.68l.22-.08.07-.04c1.17-.68,8.58-5.06,9.69-8.11,4.62-9.19-1.03-21.45-7.01-34.43-5.54-12.03-11.27-24.47-8.99-35.02v-.22c-.08-.67-9.26-67.73-42.34-118.89Z"/>
            <path class="cls-22" d="M4753.42,183.96s55.45,206.55,161.78,165.31c3-1.16,6.4-.05,8.21,2.61,7.72,11.29,33.1,47.79,53.43,38.67,24.75-11.1-37.99,27.34-37.99,27.34l-25.25,34.95-35.19-3.92-47.67-52.78-83.02-154.86-8.43-54.41,14.13-2.91Z"/>
          </g>
          <g class="cls-4">
            <path class="cls-21" d="M4844.12,84.31c-25.54-28.72-54.76-22.66-66.14-18.72-1.87.65-3.67,1.47-5.34,2.43-7.83,4.53-10.94,11.06-12.93,16.66-5.85-1.06-13.05-1.62-20.89,2.91-1.67.97-3.28,2.12-4.77,3.42-9.08,7.9-28.9,30.21-16.73,66.67,5.42,16.23,20.25,39,44.22,49.72,17.54,7.85,36.82,7.68,55.73-.47,3.52-1.52,6.92-3.21,10.12-5.02h0s.06-.04.1-.06c.03-.02.07-.04.1-.05h0c3.17-1.87,6.33-3.98,9.4-6.28,16.5-12.34,26.25-28.96,28.18-48.09,2.65-26.12-9.7-50.32-21.07-63.11Z"/>
            <path class="cls-9" d="M4842.75,78.87s-53.56-45.59-77.76,14.94c0,0-42.82-6.1-37.76,51.74,5.06,57.84,68.59,62.39,87.17,54.7,18.59-7.69,33.22-18.12,44.81-31.25s-8.47,35.03-8.47,35.03l-75.25,27.92-36.21-28.17-29.65-35.69-8.06-44.25,30.36-41.04,29.68-14.46,35.28-13.74,27.33,6.67,25.04,21.08-6.51-3.48Z"/>
          </g>
          <g class="cls-13">
            <path class="cls-17" d="M4838.69,89.15c-20.14-22.65-43.6-23.01-58.32-16.68-12.49,5.37-15.09,19.57-15.37,21.34-1.67-.64-15.28-5.45-26.16,2.69-12.83,9.61-24.2,30.13-14.6,58.88,9.6,28.75,44.42,64.6,90.17,44.87,3.3-1.42,6.4-2.97,9.3-4.61h0c.05-.02.11-.06.16-.09.05-.03.11-.06.16-.09h0c2.87-1.7,5.74-3.62,8.63-5.77,39.91-29.84,26.17-77.89,6.03-100.54Z"/>
            <path class="cls-22" d="M4797.57,68.95s-30.55,2.77-30.01,28.89c0,0-30.93-15.17-40.33,28.65-9.4,43.81,39.46,80.87,68.6,75.59,24.45-4.43,41.1-15.42,49.04-23.95,7.94-8.53-11.19,24.45-11.19,24.45l-60.14,24.43-46.88-34.63s-33.05-69.64-32.55-68.78c.5.86,31.42-37.12,31.42-37.12l44.58-20.53,26.49-6.6.98,9.6Z"/>
          </g>
          <g>
            <g>
              <g>
                <path class="cls-22" d="M4809.59,128.81c7.16-.89,19.46-5.57,10.44-28.19,0,0-22.93-.64-19.22,24.58.33,2.25,1.06,4.42,2.1,6.44,4.15,8.05,14.39,28.93,6.3,38.14,0,0,17.15-11.43.38-40.97Z"/>
                <path class="cls-3" d="M4811.08,168.13c6.31-12.68-.39-27.54-7.1-38.67-5.68-13.96-.2-25.56,15.28-27.29,4.07,8.16,6.43,21.83-4.42,25.63-2.96,1.09-6.11,1.32-9.17,1.2,16.66-.6,18.38-12.14,12.01-25.16,0,0,1.13.57,1.13.57-8.67,1.4-15.22,6.76-14.39,16.1.16,2.69.82,5.49,1.82,7.95,1.38,2.12,3.46,6.29,4.68,9.27,3.83,9.48,6.3,21.35.19,30.4h0Z"/>
              </g>
              <g>
                <path class="cls-22" d="M4773.31,149.8c-4.34,5.76-14.53,14.1-29.64-4.99,0,0,10.87-20.21,30.89-4.41,1.78,1.41,3.31,3.12,4.54,5.03,4.91,7.61,17.91,26.89,29.93,24.47,0,0-18.46,9.17-35.71-20.09Z"/>
                <path class="cls-3" d="M4806.66,170.69c-10.9.79-19.95-7.27-26.27-15.31-1.97-2.53-4.55-6.43-5.7-8.67-1.64-2.09-3.74-4.05-5.99-5.54-7.68-5.36-15.61-2.36-21.13,4.46,0,0,.07-1.26.07-1.26,8.14,12.04,18.98,16.25,27.8,2.13-1.42,2.72-3.19,5.33-5.61,7.35-8.44,7.33-18.93-.94-23.98-8.32,0,0-.44-.62-.44-.62l.51-.64c9.21-12.09,21.96-10.43,30.81,1.06,6.26,11.36,15.85,24.52,29.94,25.36h0Z"/>
              </g>
              <g>
                <path class="cls-19" d="M4775.68,145.98s-14.35-19.06-28.94-1.04c0,0,15.66,24.36,28.94,1.04Z"/>
                <path class="cls-10" d="M4775.58,145.99c-9.01-8.8-19.16-10.8-27.51.04,0,0,.11-2.01.11-2.01,4.43,6.55,13.22,14.74,21.11,8.53,2.43-1.61,4.49-4.26,6.29-6.55h0ZM4775.78,145.98c-8.34,15.48-20.43,11.77-29.2-.93,0,0-.08-.11-.08-.11l.09-.11c8.84-11.35,20.73-9.47,29.19,1.15h0Z"/>
              </g>
              <circle class="cls-7" cx="4760.32" cy="140.7" r="2.96"/>
              <g>
                <path class="cls-22" d="M4804.91,129.07s-9.37-21.94,13.52-25.61c0,0,13.32,25.72-13.52,25.61Z"/>
                <path class="cls-19" d="M4804.79,129.12c-5.98-11.89-1.52-26.59,13.62-25.79.13,0,.17.2.04.25-5.08,2.22-10.26,4.28-13.12,9.14-2.58,4.91-1.95,11.08-.3,16.29.06.14-.17.25-.23.1h0Z"/>
              </g>
            </g>
            <g class="cls-1">
              <path class="cls-2" d="M4807.81,156.06l-2-1.29c-1.82-1.17-3.9-1.12-5.57-.28v-.02s-.07.04-.1.06c-.03.02-.07.03-.1.05v.02c-1.56,1.02-2.63,2.81-2.53,4.96l.12,2.38c.17,3.4,1.99,6.51,4.88,8.32l8.76,5.17c.27.17.57.2.84.15l.03.06c.05-.03.1-.07.15-.11.06-.02.12-.04.17-.07l-.03-.06c.18-.21.3-.48.29-.8l-.12-10.17c-.13-3.4-1.92-6.53-4.78-8.37Z"/>
              <path class="cls-15" d="M4803,153.88s-4.27,1.22-3.8,5.33,5.59,11.59,14.47,14.66c8.88,3.07-3.08,9.19-3.08,9.19l-15.94-11.96-4.85-8.81,5.67-7.48,7.16-3.22.36,2.28Z"/>
            </g>
          </g>
        </g>
      </g>
    </g>
  </g>
</svg>