<?xml version="1.0" encoding="UTF-8"?>
<svg id="Calque_2" data-name="Calque 2" xmlns="http://www.w3.org/2000/svg" xmlns:xlink="http://www.w3.org/1999/xlink" viewBox="0 0 2795.69 2795.69">
  <defs>
    <style>
      .cls-1 {
        fill: none;
      }

      .cls-2 {
        fill: #bf9045;
      }

      .cls-3 {
        fill: url(#Unnamed_Pattern_11);
      }

      .cls-4 {
        fill: #dee4f5;
      }
    </style>
    <pattern id="Unnamed_Pattern_11" data-name="Unnamed Pattern 11" x="0" y="0" width="56.69" height="56.69" patternTransform="translate(6183.84 6426)" patternUnits="userSpaceOnUse" viewBox="0 0 56.69 56.69">
      <g>
        <rect class="cls-1" width="56.69" height="56.69"/>
        <path class="cls-2" d="M3.16,11.92c-.25-.07-.38-.37-.27-.6.09-.25.39-.27.64-.36.51-.15,1.02-.32,1.53-.46,2.69-.6,4.87-2.82,5.51-5.49,0,0,.49-1.52.49-1.52.04-.16.3-.17.35,0,0,0,.12.37.12.37.48,1.5.94,3.22,2.04,4.41.72.84,1.63,1.51,2.64,1.94,1.03.41,2.05.64,3.07.97.3.07.32.54.02.64l-.37.13s-1.51.51-1.51.51c-3.37.85-5.12,3.91-5.94,7.05-.06.21-.39.22-.46,0-1.18-4.78-3.15-6.43-7.86-7.59h0ZM3.14,11.98c3.17.8,5.98,2.4,6.8,5.8.19.64.41,1.28.62,1.91.2.64,1.19.61,1.37-.03.72-3.18,2.1-6.17,5.55-7,.27-.08,1.69-.52,1.92-.59.55-.17.54-1.02-.02-1.18-1.98-.66-4.07-1.25-5.39-2.96-1.11-1.25-1.48-3.09-2.01-4.64-.22-.68-1.28-.66-1.47.03-.33,1-.62,2.07-.99,3-.82,1.92-2.49,3.42-4.5,4.04-.5.18-1.01.35-1.51.52-.23.09-.57.12-.68.42-.12.27.05.61.33.69h0Z"/>
        <path class="cls-4" d="M28.86,41.83l3.42,1.1c3.35,1.08,5.98,3.7,7.06,7.06l1.1,3.42c.22.68,1.18.68,1.4,0l1.1-3.42c1.08-3.35,3.7-5.98,7.06-7.06l3.42-1.1c.68-.22.68-1.18,0-1.4l-3.42-1.1c-3.35-1.08-5.98-3.7-7.06-7.06l-1.1-3.42c-.22-.68-1.18-.68-1.4,0l-1.1,3.42c-1.08,3.35-3.7,5.98-7.06,7.06l-3.42,1.1c-.68.22-.68,1.18,0,1.4Z"/>
      </g>
    </pattern>
  </defs>
  <g id="Calque_1-2" data-name="Calque 1">
    <rect class="cls-3" width="2795.69" height="2795.69"/>
  </g>
</svg>